<svg width="259" height="277" viewBox="0 0 259 277" fill="none" xmlns="http://www.w3.org/2000/svg">
<g filter="url(#filter0_d_224_2197)">
<rect x="10" y="10" width="239" height="257" rx="15" fill="white"/>
<path d="M33.1957 39V32H35.8157C36.409 32 36.919 32.0967 37.3457 32.29C37.7723 32.4767 38.099 32.75 38.3257 33.11C38.559 33.4633 38.6757 33.8933 38.6757 34.4C38.6757 34.8933 38.559 35.32 38.3257 35.68C38.099 36.0333 37.7723 36.3067 37.3457 36.5C36.919 36.6933 36.409 36.79 35.8157 36.79H33.6057L33.9357 36.44V39H33.1957ZM33.9357 36.5L33.6057 36.14H35.7957C36.4957 36.14 37.0257 35.99 37.3857 35.69C37.7523 35.3833 37.9357 34.9533 37.9357 34.4C37.9357 33.84 37.7523 33.4067 37.3857 33.1C37.0257 32.7933 36.4957 32.64 35.7957 32.64H33.6057L33.9357 32.29V36.5ZM43.5669 39V37.84L43.5369 37.65V35.71C43.5369 35.2633 43.4102 34.92 43.1569 34.68C42.9102 34.44 42.5402 34.32 42.0469 34.32C41.7069 34.32 41.3836 34.3767 41.0769 34.49C40.7702 34.6033 40.5102 34.7533 40.2969 34.94L39.9769 34.41C40.2436 34.1833 40.5636 34.01 40.9369 33.89C41.3102 33.7633 41.7036 33.7 42.1169 33.7C42.7969 33.7 43.3202 33.87 43.6869 34.21C44.0602 34.5433 44.2469 35.0533 44.2469 35.74V39H43.5669ZM41.7569 39.05C41.3636 39.05 41.0202 38.9867 40.7269 38.86C40.4402 38.7267 40.2202 38.5467 40.0669 38.32C39.9136 38.0867 39.8369 37.82 39.8369 37.52C39.8369 37.2467 39.9002 37 40.0269 36.78C40.1602 36.5533 40.3736 36.3733 40.6669 36.24C40.9669 36.1 41.3669 36.03 41.8669 36.03H43.6769V36.56H41.8869C41.3802 36.56 41.0269 36.65 40.8269 36.83C40.6336 37.01 40.5369 37.2333 40.5369 37.5C40.5369 37.8 40.6536 38.04 40.8869 38.22C41.1202 38.4 41.4469 38.49 41.8669 38.49C42.2669 38.49 42.6102 38.4 42.8969 38.22C43.1902 38.0333 43.4036 37.7667 43.5369 37.42L43.6969 37.91C43.5636 38.2567 43.3302 38.5333 42.9969 38.74C42.6702 38.9467 42.2569 39.05 41.7569 39.05ZM49.0554 33.7C49.482 33.7 49.8554 33.7833 50.1754 33.95C50.502 34.11 50.7554 34.3567 50.9354 34.69C51.122 35.0233 51.2154 35.4433 51.2154 35.95V39H50.5054V36.02C50.5054 35.4667 50.3654 35.05 50.0854 34.77C49.812 34.4833 49.4254 34.34 48.9254 34.34C48.552 34.34 48.2254 34.4167 47.9454 34.57C47.672 34.7167 47.4587 34.9333 47.3054 35.22C47.1587 35.5 47.0854 35.84 47.0854 36.24V39H46.3754V33.75H47.0554V35.19L46.9454 34.92C47.112 34.54 47.3787 34.2433 47.7454 34.03C48.112 33.81 48.5487 33.7 49.0554 33.7ZM56.6232 39V37.84L56.5932 37.65V35.71C56.5932 35.2633 56.4665 34.92 56.2132 34.68C55.9665 34.44 55.5965 34.32 55.1032 34.32C54.7632 34.32 54.4398 34.3767 54.1332 34.49C53.8265 34.6033 53.5665 34.7533 53.3532 34.94L53.0332 34.41C53.2998 34.1833 53.6198 34.01 53.9932 33.89C54.3665 33.7633 54.7598 33.7 55.1732 33.7C55.8532 33.7 56.3765 33.87 56.7432 34.21C57.1165 34.5433 57.3032 35.0533 57.3032 35.74V39H56.6232ZM54.8132 39.05C54.4198 39.05 54.0765 38.9867 53.7832 38.86C53.4965 38.7267 53.2765 38.5467 53.1232 38.32C52.9698 38.0867 52.8932 37.82 52.8932 37.52C52.8932 37.2467 52.9565 37 53.0832 36.78C53.2165 36.5533 53.4298 36.3733 53.7232 36.24C54.0232 36.1 54.4232 36.03 54.9232 36.03H56.7332V36.56H54.9432C54.4365 36.56 54.0832 36.65 53.8832 36.83C53.6898 37.01 53.5932 37.2333 53.5932 37.5C53.5932 37.8 53.7098 38.04 53.9432 38.22C54.1765 38.4 54.5032 38.49 54.9232 38.49C55.3232 38.49 55.6665 38.4 55.9532 38.22C56.2465 38.0333 56.4598 37.7667 56.5932 37.42L56.7532 37.91C56.6198 38.2567 56.3865 38.5333 56.0532 38.74C55.7265 38.9467 55.3132 39.05 54.8132 39.05ZM61.6716 40.99C61.1916 40.99 60.7316 40.92 60.2916 40.78C59.8516 40.64 59.4949 40.44 59.2216 40.18L59.5816 39.64C59.8283 39.86 60.1316 40.0333 60.4916 40.16C60.8583 40.2933 61.2449 40.36 61.6516 40.36C62.3183 40.36 62.8083 40.2033 63.1216 39.89C63.4349 39.5833 63.5916 39.1033 63.5916 38.45V37.14L63.6916 36.24L63.6216 35.34V33.75H64.3016V38.36C64.3016 39.2667 64.0783 39.93 63.6316 40.35C63.1916 40.7767 62.5383 40.99 61.6716 40.99ZM61.5416 38.8C61.0416 38.8 60.5916 38.6933 60.1916 38.48C59.7916 38.26 59.4749 37.9567 59.2416 37.57C59.0149 37.1833 58.9016 36.74 58.9016 36.24C58.9016 35.74 59.0149 35.3 59.2416 34.92C59.4749 34.5333 59.7916 34.2333 60.1916 34.02C60.5916 33.8067 61.0416 33.7 61.5416 33.7C62.0083 33.7 62.4283 33.7967 62.8016 33.99C63.1749 34.1833 63.4716 34.47 63.6916 34.85C63.9116 35.23 64.0216 35.6933 64.0216 36.24C64.0216 36.7867 63.9116 37.25 63.6916 37.63C63.4716 38.01 63.1749 38.3 62.8016 38.5C62.4283 38.7 62.0083 38.8 61.5416 38.8ZM61.6116 38.17C61.9983 38.17 62.3416 38.09 62.6416 37.93C62.9416 37.7633 63.1783 37.5367 63.3516 37.25C63.5249 36.9567 63.6116 36.62 63.6116 36.24C63.6116 35.86 63.5249 35.5267 63.3516 35.24C63.1783 34.9533 62.9416 34.73 62.6416 34.57C62.3416 34.4033 61.9983 34.32 61.6116 34.32C61.2316 34.32 60.8883 34.4033 60.5816 34.57C60.2816 34.73 60.0449 34.9533 59.8716 35.24C59.7049 35.5267 59.6216 35.86 59.6216 36.24C59.6216 36.62 59.7049 36.9567 59.8716 37.25C60.0449 37.5367 60.2816 37.7633 60.5816 37.93C60.8883 38.09 61.2316 38.17 61.6116 38.17ZM68.6473 39.05C68.2006 39.05 67.8106 38.9667 67.4773 38.8C67.144 38.6333 66.884 38.3833 66.6973 38.05C66.5173 37.7167 66.4273 37.3 66.4273 36.8V33.75H67.1373V36.72C67.1373 37.28 67.274 37.7033 67.5473 37.99C67.8273 38.27 68.2173 38.41 68.7173 38.41C69.084 38.41 69.4006 38.3367 69.6673 38.19C69.9406 38.0367 70.1473 37.8167 70.2873 37.53C70.434 37.2433 70.5073 36.9 70.5073 36.5V33.75H71.2173V39H70.5373V37.56L70.6473 37.82C70.4806 38.2067 70.2206 38.51 69.8673 38.73C69.5206 38.9433 69.114 39.05 68.6473 39.05ZM75.0561 39.05C74.5627 39.05 74.1827 38.9167 73.9161 38.65C73.6494 38.3833 73.5161 38.0067 73.5161 37.52V32.59H74.2261V37.48C74.2261 37.7867 74.3027 38.0233 74.4561 38.19C74.6161 38.3567 74.8427 38.44 75.1361 38.44C75.4494 38.44 75.7094 38.35 75.9161 38.17L76.1661 38.68C76.0261 38.8067 75.8561 38.9 75.6561 38.96C75.4627 39.02 75.2627 39.05 75.0561 39.05ZM72.5761 34.34V33.75H75.8261V34.34H72.5761ZM80.9486 39V37.84L80.9186 37.65V35.71C80.9186 35.2633 80.7919 34.92 80.5386 34.68C80.2919 34.44 79.9219 34.32 79.4286 34.32C79.0886 34.32 78.7652 34.3767 78.4586 34.49C78.1519 34.6033 77.8919 34.7533 77.6786 34.94L77.3586 34.41C77.6252 34.1833 77.9452 34.01 78.3186 33.89C78.6919 33.7633 79.0852 33.7 79.4986 33.7C80.1786 33.7 80.7019 33.87 81.0686 34.21C81.4419 34.5433 81.6286 35.0533 81.6286 35.74V39H80.9486ZM79.1386 39.05C78.7452 39.05 78.4019 38.9867 78.1086 38.86C77.8219 38.7267 77.6019 38.5467 77.4486 38.32C77.2952 38.0867 77.2186 37.82 77.2186 37.52C77.2186 37.2467 77.2819 37 77.4086 36.78C77.5419 36.5533 77.7552 36.3733 78.0486 36.24C78.3486 36.1 78.7486 36.03 79.2486 36.03H81.0586V36.56H79.2686C78.7619 36.56 78.4086 36.65 78.2086 36.83C78.0152 37.01 77.9186 37.2333 77.9186 37.5C77.9186 37.8 78.0352 38.04 78.2686 38.22C78.5019 38.4 78.8286 38.49 79.2486 38.49C79.6486 38.49 79.9919 38.4 80.2786 38.22C80.5719 38.0333 80.7852 37.7667 80.9186 37.42L81.0786 37.91C80.9452 38.2567 80.7119 38.5333 80.3786 38.74C80.0519 38.9467 79.6386 39.05 79.1386 39.05ZM86.437 33.7C86.8637 33.7 87.237 33.7833 87.557 33.95C87.8837 34.11 88.137 34.3567 88.317 34.69C88.5037 35.0233 88.597 35.4433 88.597 35.95V39H87.887V36.02C87.887 35.4667 87.747 35.05 87.467 34.77C87.1937 34.4833 86.807 34.34 86.307 34.34C85.9337 34.34 85.607 34.4167 85.327 34.57C85.0537 34.7167 84.8403 34.9333 84.687 35.22C84.5403 35.5 84.467 35.84 84.467 36.24V39H83.757V33.75H84.437V35.19L84.327 34.92C84.4937 34.54 84.7603 34.2433 85.127 34.03C85.4937 33.81 85.9303 33.7 86.437 33.7ZM93.682 39V32H94.422V38.36H98.342V39H93.682ZM101.683 39.05C101.176 39.05 100.719 38.9367 100.313 38.71C99.9125 38.4767 99.5959 38.16 99.3625 37.76C99.1292 37.3533 99.0125 36.89 99.0125 36.37C99.0125 35.8433 99.1292 35.38 99.3625 34.98C99.5959 34.58 99.9125 34.2667 100.313 34.04C100.713 33.8133 101.169 33.7 101.683 33.7C102.203 33.7 102.663 33.8133 103.063 34.04C103.469 34.2667 103.786 34.58 104.013 34.98C104.246 35.38 104.363 35.8433 104.363 36.37C104.363 36.89 104.246 37.3533 104.013 37.76C103.786 38.16 103.469 38.4767 103.063 38.71C102.656 38.9367 102.196 39.05 101.683 39.05ZM101.683 38.42C102.063 38.42 102.399 38.3367 102.693 38.17C102.986 37.9967 103.216 37.7567 103.383 37.45C103.556 37.1367 103.643 36.7767 103.643 36.37C103.643 35.9567 103.556 35.5967 103.383 35.29C103.216 34.9833 102.986 34.7467 102.693 34.58C102.399 34.4067 102.066 34.32 101.693 34.32C101.319 34.32 100.986 34.4067 100.693 34.58C100.399 34.7467 100.166 34.9833 99.9925 35.29C99.8192 35.5967 99.7325 35.9567 99.7325 36.37C99.7325 36.7767 99.8192 37.1367 99.9925 37.45C100.166 37.7567 100.399 37.9967 100.693 38.17C100.986 38.3367 101.316 38.42 101.683 38.42ZM108.182 39.05C107.735 39.05 107.345 38.9667 107.012 38.8C106.679 38.6333 106.419 38.3833 106.232 38.05C106.052 37.7167 105.962 37.3 105.962 36.8V33.75H106.672V36.72C106.672 37.28 106.809 37.7033 107.082 37.99C107.362 38.27 107.752 38.41 108.252 38.41C108.619 38.41 108.935 38.3367 109.202 38.19C109.475 38.0367 109.682 37.8167 109.822 37.53C109.969 37.2433 110.042 36.9 110.042 36.5V33.75H110.752V39H110.072V37.56L110.182 37.82C110.015 38.2067 109.755 38.51 109.402 38.73C109.055 38.9433 108.649 39.05 108.182 39.05ZM112.931 39V33.75H113.641V39H112.931ZM113.291 32.59C113.144 32.59 113.021 32.54 112.921 32.44C112.821 32.34 112.771 32.22 112.771 32.08C112.771 31.94 112.821 31.8233 112.921 31.73C113.021 31.63 113.144 31.58 113.291 31.58C113.437 31.58 113.561 31.6267 113.661 31.72C113.761 31.8133 113.811 31.93 113.811 32.07C113.811 32.2167 113.761 32.34 113.661 32.44C113.567 32.54 113.444 32.59 113.291 32.59ZM117.226 39.05C116.793 39.05 116.383 38.99 115.996 38.87C115.61 38.7433 115.306 38.5867 115.086 38.4L115.406 37.84C115.62 38 115.893 38.14 116.226 38.26C116.56 38.3733 116.91 38.43 117.276 38.43C117.776 38.43 118.136 38.3533 118.356 38.2C118.576 38.04 118.686 37.83 118.686 37.57C118.686 37.3767 118.623 37.2267 118.496 37.12C118.376 37.0067 118.216 36.9233 118.016 36.87C117.816 36.81 117.593 36.76 117.346 36.72C117.1 36.68 116.853 36.6333 116.606 36.58C116.366 36.5267 116.146 36.45 115.946 36.35C115.746 36.2433 115.583 36.1 115.456 35.92C115.336 35.74 115.276 35.5 115.276 35.2C115.276 34.9133 115.356 34.6567 115.516 34.43C115.676 34.2033 115.91 34.0267 116.216 33.9C116.53 33.7667 116.91 33.7 117.356 33.7C117.696 33.7 118.036 33.7467 118.376 33.84C118.716 33.9267 118.996 34.0433 119.216 34.19L118.906 34.76C118.673 34.6 118.423 34.4867 118.156 34.42C117.89 34.3467 117.623 34.31 117.356 34.31C116.883 34.31 116.533 34.3933 116.306 34.56C116.086 34.72 115.976 34.9267 115.976 35.18C115.976 35.38 116.036 35.5367 116.156 35.65C116.283 35.7633 116.446 35.8533 116.646 35.92C116.853 35.98 117.076 36.03 117.316 36.07C117.563 36.11 117.806 36.16 118.046 36.22C118.293 36.2733 118.516 36.35 118.716 36.45C118.923 36.5433 119.086 36.68 119.206 36.86C119.333 37.0333 119.396 37.2633 119.396 37.55C119.396 37.8567 119.31 38.1233 119.136 38.35C118.97 38.57 118.723 38.7433 118.396 38.87C118.076 38.99 117.686 39.05 117.226 39.05ZM123.129 39.05C122.583 39.05 122.103 38.9367 121.689 38.71C121.276 38.4767 120.953 38.16 120.719 37.76C120.486 37.3533 120.369 36.89 120.369 36.37C120.369 35.85 120.479 35.39 120.699 34.99C120.926 34.59 121.233 34.2767 121.619 34.05C122.013 33.8167 122.453 33.7 122.939 33.7C123.433 33.7 123.869 33.8133 124.249 34.04C124.636 34.26 124.939 34.5733 125.159 34.98C125.379 35.38 125.489 35.8433 125.489 36.37C125.489 36.4033 125.486 36.44 125.479 36.48C125.479 36.5133 125.479 36.55 125.479 36.59H120.909V36.06H125.099L124.819 36.27C124.819 35.89 124.736 35.5533 124.569 35.26C124.409 34.96 124.189 34.7267 123.909 34.56C123.629 34.3933 123.306 34.31 122.939 34.31C122.579 34.31 122.256 34.3933 121.969 34.56C121.683 34.7267 121.459 34.96 121.299 35.26C121.139 35.56 121.059 35.9033 121.059 36.29V36.4C121.059 36.8 121.146 37.1533 121.319 37.46C121.499 37.76 121.746 37.9967 122.059 38.17C122.379 38.3367 122.743 38.42 123.149 38.42C123.469 38.42 123.766 38.3633 124.039 38.25C124.319 38.1367 124.559 37.9633 124.759 37.73L125.159 38.19C124.926 38.47 124.633 38.6833 124.279 38.83C123.933 38.9767 123.549 39.05 123.129 39.05Z" fill="black"/>
<path opacity="0.5" d="M33.5275 78V71H34.5275V77.13H38.3175V78H33.5275ZM41.8167 78.06C41.25 78.06 40.75 77.9433 40.3167 77.71C39.89 77.4767 39.5567 77.1567 39.3167 76.75C39.0833 76.3433 38.9667 75.8767 38.9667 75.35C38.9667 74.8233 39.08 74.3567 39.3067 73.95C39.54 73.5433 39.8567 73.2267 40.2567 73C40.6633 72.7667 41.12 72.65 41.6267 72.65C42.14 72.65 42.5933 72.7633 42.9867 72.99C43.38 73.2167 43.6867 73.5367 43.9067 73.95C44.1333 74.3567 44.2467 74.8333 44.2467 75.38C44.2467 75.42 44.2433 75.4667 44.2367 75.52C44.2367 75.5733 44.2333 75.6233 44.2267 75.67H39.7167V74.98H43.7267L43.3367 75.22C43.3433 74.88 43.2733 74.5767 43.1267 74.31C42.98 74.0433 42.7767 73.8367 42.5167 73.69C42.2633 73.5367 41.9667 73.46 41.6267 73.46C41.2933 73.46 40.9967 73.5367 40.7367 73.69C40.4767 73.8367 40.2733 74.0467 40.1267 74.32C39.98 74.5867 39.9067 74.8933 39.9067 75.24V75.4C39.9067 75.7533 39.9867 76.07 40.1467 76.35C40.3133 76.6233 40.5433 76.8367 40.8367 76.99C41.13 77.1433 41.4667 77.22 41.8467 77.22C42.16 77.22 42.4433 77.1667 42.6967 77.06C42.9567 76.9533 43.1833 76.7933 43.3767 76.58L43.9067 77.2C43.6667 77.48 43.3667 77.6933 43.0067 77.84C42.6533 77.9867 42.2567 78.06 41.8167 78.06ZM48.9232 78V76.88L48.8732 76.67V74.76C48.8732 74.3533 48.7532 74.04 48.5132 73.82C48.2799 73.5933 47.9266 73.48 47.4532 73.48C47.1399 73.48 46.8332 73.5333 46.5332 73.64C46.2332 73.74 45.9799 73.8767 45.7732 74.05L45.3732 73.33C45.6466 73.11 45.9732 72.9433 46.3532 72.83C46.7399 72.71 47.1432 72.65 47.5632 72.65C48.2899 72.65 48.8499 72.8267 49.2432 73.18C49.6366 73.5333 49.8332 74.0733 49.8332 74.8V78H48.9232ZM47.1832 78.06C46.7899 78.06 46.4432 77.9933 46.1432 77.86C45.8499 77.7267 45.6232 77.5433 45.4632 77.31C45.3032 77.07 45.2232 76.8 45.2232 76.5C45.2232 76.2133 45.2899 75.9533 45.4232 75.72C45.5632 75.4867 45.7866 75.3 46.0932 75.16C46.4066 75.02 46.8266 74.95 47.3532 74.95H49.0332V75.64H47.3932C46.9132 75.64 46.5899 75.72 46.4232 75.88C46.2566 76.04 46.1732 76.2333 46.1732 76.46C46.1732 76.72 46.2766 76.93 46.4832 77.09C46.6899 77.2433 46.9766 77.32 47.3432 77.32C47.7032 77.32 48.0166 77.24 48.2832 77.08C48.5566 76.92 48.7532 76.6867 48.8732 76.38L49.0632 77.04C48.9366 77.3533 48.7132 77.6033 48.3932 77.79C48.0732 77.97 47.6699 78.06 47.1832 78.06ZM53.1021 78L50.7821 72.7H51.7821L53.8421 77.5H53.3621L55.4621 72.7H56.4021L54.0821 78H53.1021ZM59.7116 78.06C59.1449 78.06 58.6449 77.9433 58.2116 77.71C57.7849 77.4767 57.4516 77.1567 57.2116 76.75C56.9783 76.3433 56.8616 75.8767 56.8616 75.35C56.8616 74.8233 56.9749 74.3567 57.2016 73.95C57.4349 73.5433 57.7516 73.2267 58.1516 73C58.5583 72.7667 59.0149 72.65 59.5216 72.65C60.0349 72.65 60.4883 72.7633 60.8816 72.99C61.2749 73.2167 61.5816 73.5367 61.8016 73.95C62.0283 74.3567 62.1416 74.8333 62.1416 75.38C62.1416 75.42 62.1383 75.4667 62.1316 75.52C62.1316 75.5733 62.1283 75.6233 62.1216 75.67H57.6116V74.98H61.6216L61.2316 75.22C61.2383 74.88 61.1683 74.5767 61.0216 74.31C60.8749 74.0433 60.6716 73.8367 60.4116 73.69C60.1583 73.5367 59.8616 73.46 59.5216 73.46C59.1883 73.46 58.8916 73.5367 58.6316 73.69C58.3716 73.8367 58.1683 74.0467 58.0216 74.32C57.8749 74.5867 57.8016 74.8933 57.8016 75.24V75.4C57.8016 75.7533 57.8816 76.07 58.0416 76.35C58.2083 76.6233 58.4383 76.8367 58.7316 76.99C59.0249 77.1433 59.3616 77.22 59.7416 77.22C60.0549 77.22 60.3383 77.1667 60.5916 77.06C60.8516 76.9533 61.0783 76.7933 61.2716 76.58L61.8016 77.2C61.5616 77.48 61.2616 77.6933 60.9016 77.84C60.5483 77.9867 60.1516 78.06 59.7116 78.06ZM68.0902 78V71.87H65.6902V71H71.4802V71.87H69.0802V78H68.0902ZM72.5273 80C72.274 80 72.0273 79.9567 71.7873 79.87C71.5473 79.79 71.3406 79.67 71.1673 79.51L71.5773 78.79C71.7106 78.9167 71.8573 79.0133 72.0173 79.08C72.1773 79.1467 72.3473 79.18 72.5273 79.18C72.7606 79.18 72.954 79.12 73.1073 79C73.2606 78.88 73.404 78.6667 73.5373 78.36L73.8673 77.63L73.9673 77.51L76.0473 72.7H76.9873L74.4173 78.53C74.264 78.9033 74.0906 79.1967 73.8973 79.41C73.7106 79.6233 73.504 79.7733 73.2773 79.86C73.0506 79.9533 72.8006 80 72.5273 80ZM73.7873 78.17L71.3673 72.7H72.3673L74.4273 77.42L73.7873 78.17ZM80.8932 78.06C80.4532 78.06 80.0499 77.96 79.6832 77.76C79.3232 77.5533 79.0332 77.25 78.8132 76.85C78.5999 76.45 78.4932 75.95 78.4932 75.35C78.4932 74.75 78.5966 74.25 78.8032 73.85C79.0166 73.45 79.3032 73.15 79.6632 72.95C80.0299 72.75 80.4399 72.65 80.8932 72.65C81.4132 72.65 81.8732 72.7633 82.2732 72.99C82.6732 73.2167 82.9899 73.5333 83.2232 73.94C83.4566 74.34 83.5732 74.81 83.5732 75.35C83.5732 75.89 83.4566 76.3633 83.2232 76.77C82.9899 77.1767 82.6732 77.4933 82.2732 77.72C81.8732 77.9467 81.4132 78.06 80.8932 78.06ZM78.0832 79.94V72.7H79.0032V74.13L78.9432 75.36L79.0432 76.59V79.94H78.0832ZM80.8132 77.22C81.1532 77.22 81.4566 77.1433 81.7232 76.99C81.9966 76.8367 82.2099 76.62 82.3632 76.34C82.5232 76.0533 82.6032 75.7233 82.6032 75.35C82.6032 74.97 82.5232 74.6433 82.3632 74.37C82.2099 74.09 81.9966 73.8733 81.7232 73.72C81.4566 73.5667 81.1532 73.49 80.8132 73.49C80.4799 73.49 80.1766 73.5667 79.9032 73.72C79.6366 73.8733 79.4232 74.09 79.2632 74.37C79.1099 74.6433 79.0332 74.97 79.0332 75.35C79.0332 75.7233 79.1099 76.0533 79.2632 76.34C79.4232 76.62 79.6366 76.8367 79.9032 76.99C80.1766 77.1433 80.4799 77.22 80.8132 77.22ZM87.4596 78.06C86.893 78.06 86.393 77.9433 85.9596 77.71C85.533 77.4767 85.1996 77.1567 84.9596 76.75C84.7263 76.3433 84.6096 75.8767 84.6096 75.35C84.6096 74.8233 84.723 74.3567 84.9496 73.95C85.183 73.5433 85.4996 73.2267 85.8996 73C86.3063 72.7667 86.763 72.65 87.2696 72.65C87.783 72.65 88.2363 72.7633 88.6296 72.99C89.023 73.2167 89.3296 73.5367 89.5496 73.95C89.7763 74.3567 89.8896 74.8333 89.8896 75.38C89.8896 75.42 89.8863 75.4667 89.8796 75.52C89.8796 75.5733 89.8763 75.6233 89.8696 75.67H85.3596V74.98H89.3696L88.9796 75.22C88.9863 74.88 88.9163 74.5767 88.7696 74.31C88.623 74.0433 88.4196 73.8367 88.1596 73.69C87.9063 73.5367 87.6096 73.46 87.2696 73.46C86.9363 73.46 86.6396 73.5367 86.3796 73.69C86.1196 73.8367 85.9163 74.0467 85.7696 74.32C85.623 74.5867 85.5496 74.8933 85.5496 75.24V75.4C85.5496 75.7533 85.6296 76.07 85.7896 76.35C85.9563 76.6233 86.1863 76.8367 86.4796 76.99C86.773 77.1433 87.1096 77.22 87.4896 77.22C87.803 77.22 88.0863 77.1667 88.3396 77.06C88.5996 76.9533 88.8263 76.7933 89.0196 76.58L89.5496 77.2C89.3096 77.48 89.0096 77.6933 88.6496 77.84C88.2963 77.9867 87.8996 78.06 87.4596 78.06ZM92.9427 78.06C92.5027 78.06 92.0827 78 91.6827 77.88C91.2894 77.76 90.9794 77.6133 90.7527 77.44L91.1527 76.68C91.3794 76.8333 91.6594 76.9633 91.9927 77.07C92.326 77.1767 92.666 77.23 93.0127 77.23C93.4594 77.23 93.7794 77.1667 93.9727 77.04C94.1727 76.9133 94.2727 76.7367 94.2727 76.51C94.2727 76.3433 94.2127 76.2133 94.0927 76.12C93.9727 76.0267 93.8127 75.9567 93.6127 75.91C93.4194 75.8633 93.2027 75.8233 92.9627 75.79C92.7227 75.75 92.4827 75.7033 92.2427 75.65C92.0027 75.59 91.7827 75.51 91.5827 75.41C91.3827 75.3033 91.2227 75.16 91.1027 74.98C90.9827 74.7933 90.9227 74.5467 90.9227 74.24C90.9227 73.92 91.0127 73.64 91.1927 73.4C91.3727 73.16 91.626 72.9767 91.9527 72.85C92.286 72.7167 92.6794 72.65 93.1327 72.65C93.4794 72.65 93.8294 72.6933 94.1827 72.78C94.5427 72.86 94.836 72.9767 95.0627 73.13L94.6527 73.89C94.4127 73.73 94.1627 73.62 93.9027 73.56C93.6427 73.5 93.3827 73.47 93.1227 73.47C92.7027 73.47 92.3894 73.54 92.1827 73.68C91.976 73.8133 91.8727 73.9867 91.8727 74.2C91.8727 74.38 91.9327 74.52 92.0527 74.62C92.1794 74.7133 92.3394 74.7867 92.5327 74.84C92.7327 74.8933 92.9527 74.94 93.1927 74.98C93.4327 75.0133 93.6727 75.06 93.9127 75.12C94.1527 75.1733 94.3694 75.25 94.5627 75.35C94.7627 75.45 94.9227 75.59 95.0427 75.77C95.1694 75.95 95.2327 76.19 95.2327 76.49C95.2327 76.81 95.1394 77.0867 94.9527 77.32C94.766 77.5533 94.5027 77.7367 94.1627 77.87C93.8227 77.9967 93.416 78.06 92.9427 78.06Z" fill="black"/>
<path opacity="0.5" d="M33.2672 116V109H34.2672V115.13H38.0572V116H33.2672ZM41.5563 116.06C40.9897 116.06 40.4897 115.943 40.0563 115.71C39.6297 115.477 39.2963 115.157 39.0563 114.75C38.823 114.343 38.7063 113.877 38.7063 113.35C38.7063 112.823 38.8197 112.357 39.0463 111.95C39.2797 111.543 39.5963 111.227 39.9963 111C40.403 110.767 40.8597 110.65 41.3663 110.65C41.8797 110.65 42.333 110.763 42.7263 110.99C43.1197 111.217 43.4263 111.537 43.6463 111.95C43.873 112.357 43.9863 112.833 43.9863 113.38C43.9863 113.42 43.983 113.467 43.9763 113.52C43.9763 113.573 43.973 113.623 43.9663 113.67H39.4563V112.98H43.4663L43.0763 113.22C43.083 112.88 43.013 112.577 42.8663 112.31C42.7197 112.043 42.5163 111.837 42.2563 111.69C42.003 111.537 41.7063 111.46 41.3663 111.46C41.033 111.46 40.7363 111.537 40.4763 111.69C40.2163 111.837 40.013 112.047 39.8663 112.32C39.7197 112.587 39.6463 112.893 39.6463 113.24V113.4C39.6463 113.753 39.7263 114.07 39.8863 114.35C40.053 114.623 40.283 114.837 40.5763 114.99C40.8697 115.143 41.2063 115.22 41.5863 115.22C41.8997 115.22 42.183 115.167 42.4363 115.06C42.6963 114.953 42.923 114.793 43.1163 114.58L43.6463 115.2C43.4063 115.48 43.1063 115.693 42.7463 115.84C42.393 115.987 41.9963 116.06 41.5563 116.06ZM48.6629 116V114.88L48.6129 114.67V112.76C48.6129 112.353 48.4929 112.04 48.2529 111.82C48.0196 111.593 47.6662 111.48 47.1929 111.48C46.8796 111.48 46.5729 111.533 46.2729 111.64C45.9729 111.74 45.7196 111.877 45.5129 112.05L45.1129 111.33C45.3862 111.11 45.7129 110.943 46.0929 110.83C46.4796 110.71 46.8829 110.65 47.3029 110.65C48.0296 110.65 48.5896 110.827 48.9829 111.18C49.3762 111.533 49.5729 112.073 49.5729 112.8V116H48.6629ZM46.9229 116.06C46.5296 116.06 46.1829 115.993 45.8829 115.86C45.5896 115.727 45.3629 115.543 45.2029 115.31C45.0429 115.07 44.9629 114.8 44.9629 114.5C44.9629 114.213 45.0296 113.953 45.1629 113.72C45.3029 113.487 45.5262 113.3 45.8329 113.16C46.1462 113.02 46.5662 112.95 47.0929 112.95H48.7729V113.64H47.1329C46.6529 113.64 46.3296 113.72 46.1629 113.88C45.9962 114.04 45.9129 114.233 45.9129 114.46C45.9129 114.72 46.0162 114.93 46.2229 115.09C46.4296 115.243 46.7162 115.32 47.0829 115.32C47.4429 115.32 47.7562 115.24 48.0229 115.08C48.2962 114.92 48.4929 114.687 48.6129 114.38L48.8029 115.04C48.6762 115.353 48.4529 115.603 48.1329 115.79C47.8129 115.97 47.4096 116.06 46.9229 116.06ZM52.8418 116L50.5218 110.7H51.5218L53.5818 115.5H53.1018L55.2018 110.7H56.1418L53.8218 116H52.8418ZM59.4512 116.06C58.8846 116.06 58.3846 115.943 57.9512 115.71C57.5246 115.477 57.1912 115.157 56.9512 114.75C56.7179 114.343 56.6012 113.877 56.6012 113.35C56.6012 112.823 56.7146 112.357 56.9412 111.95C57.1746 111.543 57.4912 111.227 57.8912 111C58.2979 110.767 58.7546 110.65 59.2612 110.65C59.7746 110.65 60.2279 110.763 60.6212 110.99C61.0146 111.217 61.3212 111.537 61.5412 111.95C61.7679 112.357 61.8812 112.833 61.8812 113.38C61.8812 113.42 61.8779 113.467 61.8712 113.52C61.8712 113.573 61.8679 113.623 61.8612 113.67H57.3512V112.98H61.3612L60.9712 113.22C60.9779 112.88 60.9079 112.577 60.7612 112.31C60.6146 112.043 60.4112 111.837 60.1512 111.69C59.8979 111.537 59.6012 111.46 59.2612 111.46C58.9279 111.46 58.6312 111.537 58.3712 111.69C58.1112 111.837 57.9079 112.047 57.7612 112.32C57.6146 112.587 57.5412 112.893 57.5412 113.24V113.4C57.5412 113.753 57.6212 114.07 57.7812 114.35C57.9479 114.623 58.1779 114.837 58.4712 114.99C58.7646 115.143 59.1012 115.22 59.4812 115.22C59.7946 115.22 60.0779 115.167 60.3312 115.06C60.5912 114.953 60.8179 114.793 61.0112 114.58L61.5412 115.2C61.3012 115.48 61.0012 115.693 60.6412 115.84C60.2879 115.987 59.8912 116.06 59.4512 116.06ZM66.4398 116V109H69.3898C70.1365 109 70.7932 109.147 71.3598 109.44C71.9332 109.733 72.3765 110.143 72.6898 110.67C73.0098 111.197 73.1698 111.807 73.1698 112.5C73.1698 113.193 73.0098 113.803 72.6898 114.33C72.3765 114.857 71.9332 115.267 71.3598 115.56C70.7932 115.853 70.1365 116 69.3898 116H66.4398ZM67.4398 115.13H69.3298C69.9098 115.13 70.4098 115.02 70.8298 114.8C71.2565 114.58 71.5865 114.273 71.8198 113.88C72.0532 113.48 72.1698 113.02 72.1698 112.5C72.1698 111.973 72.0532 111.513 71.8198 111.12C71.5865 110.727 71.2565 110.42 70.8298 110.2C70.4098 109.98 69.9098 109.87 69.3298 109.87H67.4398V115.13ZM77.1216 116.06C76.5549 116.06 76.0549 115.943 75.6216 115.71C75.1949 115.477 74.8616 115.157 74.6216 114.75C74.3882 114.343 74.2716 113.877 74.2716 113.35C74.2716 112.823 74.3849 112.357 74.6116 111.95C74.8449 111.543 75.1616 111.227 75.5616 111C75.9682 110.767 76.4249 110.65 76.9316 110.65C77.4449 110.65 77.8982 110.763 78.2916 110.99C78.6849 111.217 78.9916 111.537 79.2116 111.95C79.4382 112.357 79.5516 112.833 79.5516 113.38C79.5516 113.42 79.5482 113.467 79.5416 113.52C79.5416 113.573 79.5382 113.623 79.5316 113.67H75.0216V112.98H79.0316L78.6416 113.22C78.6482 112.88 78.5782 112.577 78.4316 112.31C78.2849 112.043 78.0816 111.837 77.8216 111.69C77.5682 111.537 77.2716 111.46 76.9316 111.46C76.5982 111.46 76.3016 111.537 76.0416 111.69C75.7816 111.837 75.5782 112.047 75.4316 112.32C75.2849 112.587 75.2116 112.893 75.2116 113.24V113.4C75.2116 113.753 75.2916 114.07 75.4516 114.35C75.6182 114.623 75.8482 114.837 76.1416 114.99C76.4349 115.143 76.7716 115.22 77.1516 115.22C77.4649 115.22 77.7482 115.167 78.0016 115.06C78.2616 114.953 78.4882 114.793 78.6816 114.58L79.2116 115.2C78.9716 115.48 78.6716 115.693 78.3116 115.84C77.9582 115.987 77.5616 116.06 77.1216 116.06ZM82.6046 116.06C82.1646 116.06 81.7446 116 81.3446 115.88C80.9513 115.76 80.6413 115.613 80.4146 115.44L80.8146 114.68C81.0413 114.833 81.3213 114.963 81.6546 115.07C81.9879 115.177 82.3279 115.23 82.6746 115.23C83.1213 115.23 83.4413 115.167 83.6346 115.04C83.8346 114.913 83.9346 114.737 83.9346 114.51C83.9346 114.343 83.8746 114.213 83.7546 114.12C83.6346 114.027 83.4746 113.957 83.2746 113.91C83.0813 113.863 82.8646 113.823 82.6246 113.79C82.3846 113.75 82.1446 113.703 81.9046 113.65C81.6646 113.59 81.4446 113.51 81.2446 113.41C81.0446 113.303 80.8846 113.16 80.7646 112.98C80.6446 112.793 80.5846 112.547 80.5846 112.24C80.5846 111.92 80.6746 111.64 80.8546 111.4C81.0346 111.16 81.2879 110.977 81.6146 110.85C81.9479 110.717 82.3413 110.65 82.7946 110.65C83.1413 110.65 83.4913 110.693 83.8446 110.78C84.2046 110.86 84.4979 110.977 84.7246 111.13L84.3146 111.89C84.0746 111.73 83.8246 111.62 83.5646 111.56C83.3046 111.5 83.0446 111.47 82.7846 111.47C82.3646 111.47 82.0513 111.54 81.8446 111.68C81.6379 111.813 81.5346 111.987 81.5346 112.2C81.5346 112.38 81.5946 112.52 81.7146 112.62C81.8413 112.713 82.0013 112.787 82.1946 112.84C82.3946 112.893 82.6146 112.94 82.8546 112.98C83.0946 113.013 83.3346 113.06 83.5746 113.12C83.8146 113.173 84.0313 113.25 84.2246 113.35C84.4246 113.45 84.5846 113.59 84.7046 113.77C84.8313 113.95 84.8946 114.19 84.8946 114.49C84.8946 114.81 84.8013 115.087 84.6146 115.32C84.4279 115.553 84.1646 115.737 83.8246 115.87C83.4846 115.997 83.0779 116.06 82.6046 116.06ZM88.6044 116.06C88.0644 116.06 87.581 115.943 87.1544 115.71C86.7344 115.477 86.4044 115.157 86.1644 114.75C85.9244 114.343 85.8044 113.877 85.8044 113.35C85.8044 112.823 85.9244 112.357 86.1644 111.95C86.4044 111.543 86.7344 111.227 87.1544 111C87.581 110.767 88.0644 110.65 88.6044 110.65C89.0844 110.65 89.511 110.747 89.8844 110.94C90.2644 111.127 90.5577 111.407 90.7644 111.78L90.0344 112.25C89.861 111.99 89.6477 111.8 89.3944 111.68C89.1477 111.553 88.881 111.49 88.5944 111.49C88.2477 111.49 87.9377 111.567 87.6644 111.72C87.391 111.873 87.1744 112.09 87.0144 112.37C86.8544 112.643 86.7744 112.97 86.7744 113.35C86.7744 113.73 86.8544 114.06 87.0144 114.34C87.1744 114.62 87.391 114.837 87.6644 114.99C87.9377 115.143 88.2477 115.22 88.5944 115.22C88.881 115.22 89.1477 115.16 89.3944 115.04C89.6477 114.913 89.861 114.72 90.0344 114.46L90.7644 114.92C90.5577 115.287 90.2644 115.57 89.8844 115.77C89.511 115.963 89.0844 116.06 88.6044 116.06ZM92.2073 116V110.7H93.1273V112.14L93.0373 111.78C93.1839 111.413 93.4306 111.133 93.7773 110.94C94.1239 110.747 94.5506 110.65 95.0573 110.65V111.58C95.0173 111.573 94.9773 111.57 94.9373 111.57C94.9039 111.57 94.8706 111.57 94.8373 111.57C94.3239 111.57 93.9173 111.723 93.6173 112.03C93.3173 112.337 93.1673 112.78 93.1673 113.36V116H92.2073ZM96.4405 116V110.7H97.4005V116H96.4405ZM96.9205 109.68C96.7338 109.68 96.5771 109.62 96.4505 109.5C96.3305 109.38 96.2705 109.233 96.2705 109.06C96.2705 108.88 96.3305 108.73 96.4505 108.61C96.5771 108.49 96.7338 108.43 96.9205 108.43C97.1071 108.43 97.2605 108.49 97.3805 108.61C97.5071 108.723 97.5705 108.867 97.5705 109.04C97.5705 109.22 97.5105 109.373 97.3905 109.5C97.2705 109.62 97.1138 109.68 96.9205 109.68ZM102.243 116.06C101.803 116.06 101.4 115.96 101.033 115.76C100.673 115.553 100.383 115.25 100.163 114.85C99.9501 114.45 99.8434 113.95 99.8434 113.35C99.8434 112.75 99.9468 112.25 100.153 111.85C100.367 111.45 100.653 111.15 101.013 110.95C101.38 110.75 101.79 110.65 102.243 110.65C102.763 110.65 103.223 110.763 103.623 110.99C104.023 111.217 104.34 111.533 104.573 111.94C104.807 112.34 104.923 112.81 104.923 113.35C104.923 113.89 104.807 114.363 104.573 114.77C104.34 115.177 104.023 115.493 103.623 115.72C103.223 115.947 102.763 116.06 102.243 116.06ZM99.4334 117.94V110.7H100.353V112.13L100.293 113.36L100.393 114.59V117.94H99.4334ZM102.163 115.22C102.503 115.22 102.807 115.143 103.073 114.99C103.347 114.837 103.56 114.62 103.713 114.34C103.873 114.053 103.953 113.723 103.953 113.35C103.953 112.97 103.873 112.643 103.713 112.37C103.56 112.09 103.347 111.873 103.073 111.72C102.807 111.567 102.503 111.49 102.163 111.49C101.83 111.49 101.527 111.567 101.253 111.72C100.987 111.873 100.773 112.09 100.613 112.37C100.46 112.643 100.383 112.97 100.383 113.35C100.383 113.723 100.46 114.053 100.613 114.34C100.773 114.62 100.987 114.837 101.253 114.99C101.527 115.143 101.83 115.22 102.163 115.22ZM108.27 116.06C107.737 116.06 107.323 115.917 107.03 115.63C106.737 115.343 106.59 114.933 106.59 114.4V109.54H107.55V114.36C107.55 114.647 107.62 114.867 107.76 115.02C107.907 115.173 108.113 115.25 108.38 115.25C108.68 115.25 108.93 115.167 109.13 115L109.43 115.69C109.283 115.817 109.107 115.91 108.9 115.97C108.7 116.03 108.49 116.06 108.27 116.06ZM105.69 111.49V110.7H109.07V111.49H105.69ZM110.79 116V110.7H111.75V116H110.79ZM111.27 109.68C111.084 109.68 110.927 109.62 110.8 109.5C110.68 109.38 110.62 109.233 110.62 109.06C110.62 108.88 110.68 108.73 110.8 108.61C110.927 108.49 111.084 108.43 111.27 108.43C111.457 108.43 111.61 108.49 111.73 108.61C111.857 108.723 111.92 108.867 111.92 109.04C111.92 109.22 111.86 109.373 111.74 109.5C111.62 109.62 111.464 109.68 111.27 109.68ZM116.053 116.06C115.52 116.06 115.047 115.943 114.633 115.71C114.22 115.477 113.893 115.157 113.653 114.75C113.413 114.337 113.293 113.87 113.293 113.35C113.293 112.823 113.413 112.357 113.653 111.95C113.893 111.543 114.22 111.227 114.633 111C115.047 110.767 115.52 110.65 116.053 110.65C116.58 110.65 117.05 110.767 117.463 111C117.883 111.227 118.21 111.543 118.443 111.95C118.683 112.35 118.803 112.817 118.803 113.35C118.803 113.877 118.683 114.343 118.443 114.75C118.21 115.157 117.883 115.477 117.463 115.71C117.05 115.943 116.58 116.06 116.053 116.06ZM116.053 115.22C116.393 115.22 116.697 115.143 116.963 114.99C117.237 114.837 117.45 114.62 117.603 114.34C117.757 114.053 117.833 113.723 117.833 113.35C117.833 112.97 117.757 112.643 117.603 112.37C117.45 112.09 117.237 111.873 116.963 111.72C116.697 111.567 116.393 111.49 116.053 111.49C115.713 111.49 115.41 111.567 115.143 111.72C114.877 111.873 114.663 112.09 114.503 112.37C114.343 112.643 114.263 112.97 114.263 113.35C114.263 113.723 114.343 114.053 114.503 114.34C114.663 114.62 114.877 114.837 115.143 114.99C115.41 115.143 115.713 115.22 116.053 115.22ZM123.161 110.65C123.594 110.65 123.974 110.733 124.301 110.9C124.634 111.067 124.894 111.32 125.081 111.66C125.268 112 125.361 112.43 125.361 112.95V116H124.401V113.06C124.401 112.547 124.274 112.16 124.021 111.9C123.774 111.64 123.424 111.51 122.971 111.51C122.631 111.51 122.334 111.577 122.081 111.71C121.828 111.843 121.631 112.04 121.491 112.3C121.358 112.56 121.291 112.883 121.291 113.27V116H120.331V110.7H121.251V112.13L121.101 111.75C121.274 111.403 121.541 111.133 121.901 110.94C122.261 110.747 122.681 110.65 123.161 110.65ZM127.568 112.02C127.381 112.02 127.221 111.957 127.088 111.83C126.954 111.697 126.888 111.53 126.888 111.33C126.888 111.13 126.954 110.967 127.088 110.84C127.221 110.713 127.381 110.65 127.568 110.65C127.748 110.65 127.901 110.713 128.028 110.84C128.161 110.967 128.228 111.13 128.228 111.33C128.228 111.53 128.161 111.697 128.028 111.83C127.901 111.957 127.748 112.02 127.568 112.02ZM127.568 116.06C127.381 116.06 127.221 115.997 127.088 115.87C126.954 115.737 126.888 115.57 126.888 115.37C126.888 115.17 126.954 115.007 127.088 114.88C127.221 114.753 127.381 114.69 127.568 114.69C127.748 114.69 127.901 114.753 128.028 114.88C128.161 115.007 128.228 115.17 128.228 115.37C128.228 115.57 128.161 115.737 128.028 115.87C127.901 115.997 127.748 116.06 127.568 116.06ZM135.589 109.78L134.229 110.54V110.35L135.589 111.11L135.279 111.66L133.959 110.89L134.069 110.82L134.079 112.31H133.479L133.489 110.82L133.599 110.89L132.279 111.66L131.969 111.11L133.339 110.35V110.54L131.969 109.78L132.279 109.22L133.599 110L133.489 110.07L133.479 108.58H134.079L134.069 110.07L133.959 110L135.279 109.22L135.589 109.78Z" fill="black"/>
<path opacity="0.5" d="M33.2857 158V151H36.2357C36.9824 151 37.6391 151.147 38.2057 151.44C38.7791 151.733 39.2224 152.143 39.5357 152.67C39.8557 153.197 40.0157 153.807 40.0157 154.5C40.0157 155.193 39.8557 155.803 39.5357 156.33C39.2224 156.857 38.7791 157.267 38.2057 157.56C37.6391 157.853 36.9824 158 36.2357 158H33.2857ZM34.2857 157.13H36.1757C36.7557 157.13 37.2557 157.02 37.6757 156.8C38.1024 156.58 38.4324 156.273 38.6657 155.88C38.8991 155.48 39.0157 155.02 39.0157 154.5C39.0157 153.973 38.8991 153.513 38.6657 153.12C38.4324 152.727 38.1024 152.42 37.6757 152.2C37.2557 151.98 36.7557 151.87 36.1757 151.87H34.2857V157.13ZM44.8975 158V156.88L44.8475 156.67V154.76C44.8475 154.353 44.7275 154.04 44.4875 153.82C44.2541 153.593 43.9008 153.48 43.4275 153.48C43.1141 153.48 42.8075 153.533 42.5075 153.64C42.2075 153.74 41.9541 153.877 41.7475 154.05L41.3475 153.33C41.6208 153.11 41.9475 152.943 42.3275 152.83C42.7141 152.71 43.1175 152.65 43.5375 152.65C44.2641 152.65 44.8241 152.827 45.2175 153.18C45.6108 153.533 45.8075 154.073 45.8075 154.8V158H44.8975ZM43.1575 158.06C42.7641 158.06 42.4175 157.993 42.1175 157.86C41.8241 157.727 41.5975 157.543 41.4375 157.31C41.2775 157.07 41.1975 156.8 41.1975 156.5C41.1975 156.213 41.2641 155.953 41.3975 155.72C41.5375 155.487 41.7608 155.3 42.0675 155.16C42.3808 155.02 42.8008 154.95 43.3275 154.95H45.0075V155.64H43.3675C42.8875 155.64 42.5641 155.72 42.3975 155.88C42.2308 156.04 42.1475 156.233 42.1475 156.46C42.1475 156.72 42.2508 156.93 42.4575 157.09C42.6641 157.243 42.9508 157.32 43.3175 157.32C43.6775 157.32 43.9908 157.24 44.2575 157.08C44.5308 156.92 44.7275 156.687 44.8475 156.38L45.0375 157.04C44.9108 157.353 44.6875 157.603 44.3675 157.79C44.0475 157.97 43.6441 158.06 43.1575 158.06ZM49.604 158.06C49.0707 158.06 48.6574 157.917 48.364 157.63C48.0707 157.343 47.924 156.933 47.924 156.4V151.54H48.884V156.36C48.884 156.647 48.954 156.867 49.094 157.02C49.2407 157.173 49.4474 157.25 49.714 157.25C50.014 157.25 50.264 157.167 50.464 157L50.764 157.69C50.6174 157.817 50.4407 157.91 50.234 157.97C50.034 158.03 49.824 158.06 49.604 158.06ZM47.024 153.49V152.7H50.404V153.49H47.024ZM54.3089 158.06C53.7422 158.06 53.2422 157.943 52.8089 157.71C52.3822 157.477 52.0489 157.157 51.8089 156.75C51.5755 156.343 51.4589 155.877 51.4589 155.35C51.4589 154.823 51.5722 154.357 51.7989 153.95C52.0322 153.543 52.3489 153.227 52.7489 153C53.1555 152.767 53.6122 152.65 54.1189 152.65C54.6322 152.65 55.0855 152.763 55.4789 152.99C55.8722 153.217 56.1789 153.537 56.3989 153.95C56.6255 154.357 56.7389 154.833 56.7389 155.38C56.7389 155.42 56.7355 155.467 56.7289 155.52C56.7289 155.573 56.7255 155.623 56.7189 155.67H52.2089V154.98H56.2189L55.8289 155.22C55.8355 154.88 55.7655 154.577 55.6189 154.31C55.4722 154.043 55.2689 153.837 55.0089 153.69C54.7555 153.537 54.4589 153.46 54.1189 153.46C53.7855 153.46 53.4889 153.537 53.2289 153.69C52.9689 153.837 52.7655 154.047 52.6189 154.32C52.4722 154.587 52.3989 154.893 52.3989 155.24V155.4C52.3989 155.753 52.4789 156.07 52.6389 156.35C52.8055 156.623 53.0355 156.837 53.3289 156.99C53.6222 157.143 53.9589 157.22 54.3389 157.22C54.6522 157.22 54.9355 157.167 55.1889 157.06C55.4489 156.953 55.6755 156.793 55.8689 156.58L56.3989 157.2C56.1589 157.48 55.8589 157.693 55.4989 157.84C55.1455 157.987 54.7489 158.06 54.3089 158.06ZM63.3375 158.08C62.8041 158.08 62.2941 158 61.8075 157.84C61.3208 157.673 60.9375 157.46 60.6575 157.2L61.0275 156.42C61.2941 156.653 61.6341 156.847 62.0475 157C62.4608 157.153 62.8908 157.23 63.3375 157.23C63.7441 157.23 64.0741 157.183 64.3275 157.09C64.5808 156.997 64.7675 156.87 64.8875 156.71C65.0075 156.543 65.0675 156.357 65.0675 156.15C65.0675 155.91 64.9875 155.717 64.8275 155.57C64.6741 155.423 64.4708 155.307 64.2175 155.22C63.9708 155.127 63.6975 155.047 63.3975 154.98C63.0975 154.913 62.7941 154.837 62.4875 154.75C62.1875 154.657 61.9108 154.54 61.6575 154.4C61.4108 154.26 61.2108 154.073 61.0575 153.84C60.9041 153.6 60.8275 153.293 60.8275 152.92C60.8275 152.56 60.9208 152.23 61.1075 151.93C61.3008 151.623 61.5941 151.38 61.9875 151.2C62.3875 151.013 62.8941 150.92 63.5075 150.92C63.9141 150.92 64.3175 150.973 64.7175 151.08C65.1175 151.187 65.4641 151.34 65.7575 151.54L65.4275 152.34C65.1275 152.14 64.8108 151.997 64.4775 151.91C64.1441 151.817 63.8208 151.77 63.5075 151.77C63.1141 151.77 62.7908 151.82 62.5375 151.92C62.2841 152.02 62.0975 152.153 61.9775 152.32C61.8641 152.487 61.8075 152.673 61.8075 152.88C61.8075 153.127 61.8841 153.323 62.0375 153.47C62.1975 153.617 62.4008 153.733 62.6475 153.82C62.9008 153.907 63.1775 153.987 63.4775 154.06C63.7775 154.127 64.0775 154.203 64.3775 154.29C64.6841 154.377 64.9608 154.49 65.2075 154.63C65.4608 154.77 65.6641 154.957 65.8175 155.19C65.9708 155.423 66.0475 155.723 66.0475 156.09C66.0475 156.443 65.9508 156.773 65.7575 157.08C65.5641 157.38 65.2641 157.623 64.8575 157.81C64.4575 157.99 63.9508 158.08 63.3375 158.08ZM69.3884 158.06C68.8551 158.06 68.4417 157.917 68.1484 157.63C67.8551 157.343 67.7084 156.933 67.7084 156.4V151.54H68.6684V156.36C68.6684 156.647 68.7384 156.867 68.8784 157.02C69.0251 157.173 69.2317 157.25 69.4984 157.25C69.7984 157.25 70.0484 157.167 70.2484 157L70.5484 157.69C70.4017 157.817 70.2251 157.91 70.0184 157.97C69.8184 158.03 69.6084 158.06 69.3884 158.06ZM66.8084 153.49V152.7H70.1884V153.49H66.8084ZM75.199 158V156.88L75.149 156.67V154.76C75.149 154.353 75.029 154.04 74.789 153.82C74.5557 153.593 74.2024 153.48 73.729 153.48C73.4157 153.48 73.109 153.533 72.809 153.64C72.509 153.74 72.2557 153.877 72.049 154.05L71.649 153.33C71.9224 153.11 72.249 152.943 72.629 152.83C73.0157 152.71 73.419 152.65 73.839 152.65C74.5657 152.65 75.1257 152.827 75.519 153.18C75.9124 153.533 76.109 154.073 76.109 154.8V158H75.199ZM73.459 158.06C73.0657 158.06 72.719 157.993 72.419 157.86C72.1257 157.727 71.899 157.543 71.739 157.31C71.579 157.07 71.499 156.8 71.499 156.5C71.499 156.213 71.5657 155.953 71.699 155.72C71.839 155.487 72.0624 155.3 72.369 155.16C72.6824 155.02 73.1024 154.95 73.629 154.95H75.309V155.64H73.669C73.189 155.64 72.8657 155.72 72.699 155.88C72.5324 156.04 72.449 156.233 72.449 156.46C72.449 156.72 72.5524 156.93 72.759 157.09C72.9657 157.243 73.2524 157.32 73.619 157.32C73.979 157.32 74.2924 157.24 74.559 157.08C74.8324 156.92 75.029 156.687 75.149 156.38L75.339 157.04C75.2124 157.353 74.989 157.603 74.669 157.79C74.349 157.97 73.9457 158.06 73.459 158.06ZM78.0856 158V152.7H79.0056V154.14L78.9156 153.78C79.0622 153.413 79.3089 153.133 79.6556 152.94C80.0022 152.747 80.4289 152.65 80.9356 152.65V153.58C80.8956 153.573 80.8556 153.57 80.8156 153.57C80.7822 153.57 80.7489 153.57 80.7156 153.57C80.2022 153.57 79.7956 153.723 79.4956 154.03C79.1956 154.337 79.0456 154.78 79.0456 155.36V158H78.0856ZM84.3536 158.06C83.8203 158.06 83.407 157.917 83.1136 157.63C82.8203 157.343 82.6736 156.933 82.6736 156.4V151.54H83.6336V156.36C83.6336 156.647 83.7036 156.867 83.8436 157.02C83.9903 157.173 84.197 157.25 84.4636 157.25C84.7636 157.25 85.0136 157.167 85.2136 157L85.5136 157.69C85.367 157.817 85.1903 157.91 84.9836 157.97C84.7836 158.03 84.5736 158.06 84.3536 158.06ZM81.7736 153.49V152.7H85.1536V153.49H81.7736Z" fill="black"/>
<path opacity="0.5" d="M33.183 200V193H36.133C36.8797 193 37.5363 193.147 38.103 193.44C38.6763 193.733 39.1197 194.143 39.433 194.67C39.753 195.197 39.913 195.807 39.913 196.5C39.913 197.193 39.753 197.803 39.433 198.33C39.1197 198.857 38.6763 199.267 38.103 199.56C37.5363 199.853 36.8797 200 36.133 200H33.183ZM34.183 199.13H36.073C36.653 199.13 37.153 199.02 37.573 198.8C37.9997 198.58 38.3297 198.273 38.563 197.88C38.7963 197.48 38.913 197.02 38.913 196.5C38.913 195.973 38.7963 195.513 38.563 195.12C38.3297 194.727 37.9997 194.42 37.573 194.2C37.153 193.98 36.653 193.87 36.073 193.87H34.183V199.13ZM44.7947 200V198.88L44.7447 198.67V196.76C44.7447 196.353 44.6247 196.04 44.3847 195.82C44.1514 195.593 43.7981 195.48 43.3247 195.48C43.0114 195.48 42.7047 195.533 42.4047 195.64C42.1047 195.74 41.8514 195.877 41.6447 196.05L41.2447 195.33C41.5181 195.11 41.8447 194.943 42.2247 194.83C42.6114 194.71 43.0147 194.65 43.4347 194.65C44.1614 194.65 44.7214 194.827 45.1147 195.18C45.5081 195.533 45.7047 196.073 45.7047 196.8V200H44.7947ZM43.0547 200.06C42.6614 200.06 42.3147 199.993 42.0147 199.86C41.7214 199.727 41.4947 199.543 41.3347 199.31C41.1747 199.07 41.0947 198.8 41.0947 198.5C41.0947 198.213 41.1614 197.953 41.2947 197.72C41.4347 197.487 41.6581 197.3 41.9647 197.16C42.2781 197.02 42.6981 196.95 43.2247 196.95H44.9047V197.64H43.2647C42.7847 197.64 42.4614 197.72 42.2947 197.88C42.1281 198.04 42.0447 198.233 42.0447 198.46C42.0447 198.72 42.1481 198.93 42.3547 199.09C42.5614 199.243 42.8481 199.32 43.2147 199.32C43.5747 199.32 43.8881 199.24 44.1547 199.08C44.4281 198.92 44.6247 198.687 44.7447 198.38L44.9347 199.04C44.8081 199.353 44.5847 199.603 44.2647 199.79C43.9447 199.97 43.5414 200.06 43.0547 200.06ZM49.5013 200.06C48.968 200.06 48.5546 199.917 48.2613 199.63C47.968 199.343 47.8213 198.933 47.8213 198.4V193.54H48.7813V198.36C48.7813 198.647 48.8513 198.867 48.9913 199.02C49.138 199.173 49.3446 199.25 49.6113 199.25C49.9113 199.25 50.1613 199.167 50.3613 199L50.6613 199.69C50.5146 199.817 50.338 199.91 50.1313 199.97C49.9313 200.03 49.7213 200.06 49.5013 200.06ZM46.9213 195.49V194.7H50.3013V195.49H46.9213ZM54.2061 200.06C53.6395 200.06 53.1395 199.943 52.7061 199.71C52.2795 199.477 51.9461 199.157 51.7061 198.75C51.4728 198.343 51.3561 197.877 51.3561 197.35C51.3561 196.823 51.4695 196.357 51.6961 195.95C51.9295 195.543 52.2461 195.227 52.6461 195C53.0528 194.767 53.5095 194.65 54.0161 194.65C54.5295 194.65 54.9828 194.763 55.3761 194.99C55.7695 195.217 56.0761 195.537 56.2961 195.95C56.5228 196.357 56.6361 196.833 56.6361 197.38C56.6361 197.42 56.6328 197.467 56.6261 197.52C56.6261 197.573 56.6228 197.623 56.6161 197.67H52.1061V196.98H56.1161L55.7261 197.22C55.7328 196.88 55.6628 196.577 55.5161 196.31C55.3695 196.043 55.1661 195.837 54.9061 195.69C54.6528 195.537 54.3561 195.46 54.0161 195.46C53.6828 195.46 53.3861 195.537 53.1261 195.69C52.8661 195.837 52.6628 196.047 52.5161 196.32C52.3695 196.587 52.2961 196.893 52.2961 197.24V197.4C52.2961 197.753 52.3761 198.07 52.5361 198.35C52.7028 198.623 52.9328 198.837 53.2261 198.99C53.5195 199.143 53.8561 199.22 54.2361 199.22C54.5495 199.22 54.8328 199.167 55.0861 199.06C55.3461 198.953 55.5728 198.793 55.7661 198.58L56.2961 199.2C56.0561 199.48 55.7561 199.693 55.3961 199.84C55.0428 199.987 54.6461 200.06 54.2061 200.06ZM62.1047 196.02H65.7047V196.87H62.1047V196.02ZM62.1947 199.13H66.2747V200H61.1947V193H66.1347V193.87H62.1947V199.13ZM70.7839 194.65C71.2173 194.65 71.5973 194.733 71.9239 194.9C72.2573 195.067 72.5173 195.32 72.7039 195.66C72.8906 196 72.9839 196.43 72.9839 196.95V200H72.0239V197.06C72.0239 196.547 71.8973 196.16 71.6439 195.9C71.3973 195.64 71.0473 195.51 70.5939 195.51C70.2539 195.51 69.9573 195.577 69.7039 195.71C69.4506 195.843 69.2539 196.04 69.1139 196.3C68.9806 196.56 68.9139 196.883 68.9139 197.27V200H67.9539V194.7H68.8739V196.13L68.7239 195.75C68.8973 195.403 69.1639 195.133 69.5239 194.94C69.8839 194.747 70.3039 194.65 70.7839 194.65ZM77.1506 200.06C76.6373 200.06 76.1773 199.947 75.7706 199.72C75.3706 199.493 75.0539 199.177 74.8206 198.77C74.5873 198.363 74.4706 197.89 74.4706 197.35C74.4706 196.81 74.5873 196.34 74.8206 195.94C75.0539 195.533 75.3706 195.217 75.7706 194.99C76.1773 194.763 76.6373 194.65 77.1506 194.65C77.5973 194.65 78.0006 194.75 78.3606 194.95C78.7206 195.15 79.0073 195.45 79.2206 195.85C79.4406 196.25 79.5506 196.75 79.5506 197.35C79.5506 197.95 79.4439 198.45 79.2306 198.85C79.0239 199.25 78.7406 199.553 78.3806 199.76C78.0206 199.96 77.6106 200.06 77.1506 200.06ZM77.2306 199.22C77.5639 199.22 77.8639 199.143 78.1306 198.99C78.4039 198.837 78.6173 198.62 78.7706 198.34C78.9306 198.053 79.0106 197.723 79.0106 197.35C79.0106 196.97 78.9306 196.643 78.7706 196.37C78.6173 196.09 78.4039 195.873 78.1306 195.72C77.8639 195.567 77.5639 195.49 77.2306 195.49C76.8906 195.49 76.5873 195.567 76.3206 195.72C76.0539 195.873 75.8406 196.09 75.6806 196.37C75.5206 196.643 75.4406 196.97 75.4406 197.35C75.4406 197.723 75.5206 198.053 75.6806 198.34C75.8406 198.62 76.0539 198.837 76.3206 198.99C76.5873 199.143 76.8906 199.22 77.2306 199.22ZM79.0406 200V198.57L79.1006 197.34L79.0006 196.11V192.58H79.9606V200H79.0406Z" fill="black"/>
<path opacity="0.5" d="M33.3123 241V234H34.3123V240.13H38.1023V241H33.3123ZM41.6014 241.06C41.0348 241.06 40.5348 240.943 40.1014 240.71C39.6748 240.477 39.3414 240.157 39.1014 239.75C38.8681 239.343 38.7514 238.877 38.7514 238.35C38.7514 237.823 38.8648 237.357 39.0914 236.95C39.3248 236.543 39.6414 236.227 40.0414 236C40.4481 235.767 40.9048 235.65 41.4114 235.65C41.9248 235.65 42.3781 235.763 42.7714 235.99C43.1648 236.217 43.4714 236.537 43.6914 236.95C43.9181 237.357 44.0314 237.833 44.0314 238.38C44.0314 238.42 44.0281 238.467 44.0214 238.52C44.0214 238.573 44.0181 238.623 44.0114 238.67H39.5014V237.98H43.5114L43.1214 238.22C43.1281 237.88 43.0581 237.577 42.9114 237.31C42.7648 237.043 42.5614 236.837 42.3014 236.69C42.0481 236.537 41.7514 236.46 41.4114 236.46C41.0781 236.46 40.7814 236.537 40.5214 236.69C40.2614 236.837 40.0581 237.047 39.9114 237.32C39.7648 237.587 39.6914 237.893 39.6914 238.24V238.4C39.6914 238.753 39.7714 239.07 39.9314 239.35C40.0981 239.623 40.3281 239.837 40.6214 239.99C40.9148 240.143 41.2514 240.22 41.6314 240.22C41.9448 240.22 42.2281 240.167 42.4814 240.06C42.7414 239.953 42.9681 239.793 43.1614 239.58L43.6914 240.2C43.4514 240.48 43.1514 240.693 42.7914 240.84C42.4381 240.987 42.0414 241.06 41.6014 241.06ZM48.708 241V239.88L48.658 239.67V237.76C48.658 237.353 48.538 237.04 48.298 236.82C48.0647 236.593 47.7113 236.48 47.238 236.48C46.9247 236.48 46.618 236.533 46.318 236.64C46.018 236.74 45.7647 236.877 45.558 237.05L45.158 236.33C45.4313 236.11 45.758 235.943 46.138 235.83C46.5247 235.71 46.928 235.65 47.348 235.65C48.0747 235.65 48.6347 235.827 49.028 236.18C49.4213 236.533 49.618 237.073 49.618 237.8V241H48.708ZM46.968 241.06C46.5747 241.06 46.228 240.993 45.928 240.86C45.6347 240.727 45.408 240.543 45.248 240.31C45.088 240.07 45.008 239.8 45.008 239.5C45.008 239.213 45.0747 238.953 45.208 238.72C45.348 238.487 45.5713 238.3 45.878 238.16C46.1913 238.02 46.6113 237.95 47.138 237.95H48.818V238.64H47.178C46.698 238.64 46.3747 238.72 46.208 238.88C46.0413 239.04 45.958 239.233 45.958 239.46C45.958 239.72 46.0613 239.93 46.268 240.09C46.4747 240.243 46.7613 240.32 47.128 240.32C47.488 240.32 47.8013 240.24 48.068 240.08C48.3413 239.92 48.538 239.687 48.658 239.38L48.848 240.04C48.7213 240.353 48.498 240.603 48.178 240.79C47.858 240.97 47.4547 241.06 46.968 241.06ZM52.8869 241L50.5669 235.7H51.5669L53.6269 240.5H53.1469L55.2469 235.7H56.1869L53.8669 241H52.8869ZM59.4964 241.06C58.9297 241.06 58.4297 240.943 57.9964 240.71C57.5697 240.477 57.2364 240.157 56.9964 239.75C56.763 239.343 56.6464 238.877 56.6464 238.35C56.6464 237.823 56.7597 237.357 56.9864 236.95C57.2197 236.543 57.5364 236.227 57.9364 236C58.343 235.767 58.7997 235.65 59.3064 235.65C59.8197 235.65 60.273 235.763 60.6664 235.99C61.0597 236.217 61.3664 236.537 61.5864 236.95C61.813 237.357 61.9264 237.833 61.9264 238.38C61.9264 238.42 61.923 238.467 61.9164 238.52C61.9164 238.573 61.913 238.623 61.9064 238.67H57.3964V237.98H61.4064L61.0164 238.22C61.023 237.88 60.953 237.577 60.8064 237.31C60.6597 237.043 60.4564 236.837 60.1964 236.69C59.943 236.537 59.6464 236.46 59.3064 236.46C58.973 236.46 58.6764 236.537 58.4164 236.69C58.1564 236.837 57.953 237.047 57.8064 237.32C57.6597 237.587 57.5864 237.893 57.5864 238.24V238.4C57.5864 238.753 57.6664 239.07 57.8264 239.35C57.993 239.623 58.223 239.837 58.5164 239.99C58.8097 240.143 59.1464 240.22 59.5264 240.22C59.8397 240.22 60.123 240.167 60.3764 240.06C60.6364 239.953 60.863 239.793 61.0564 239.58L61.5864 240.2C61.3464 240.48 61.0464 240.693 60.6864 240.84C60.333 240.987 59.9364 241.06 59.4964 241.06ZM69.645 241.08C69.1116 241.08 68.615 240.99 68.155 240.81C67.7016 240.63 67.3083 240.38 66.975 240.06C66.6416 239.733 66.3816 239.353 66.195 238.92C66.0083 238.487 65.915 238.013 65.915 237.5C65.915 236.987 66.0083 236.513 66.195 236.08C66.3816 235.647 66.6416 235.27 66.975 234.95C67.3083 234.623 67.7016 234.37 68.155 234.19C68.6083 234.01 69.105 233.92 69.645 233.92C70.1783 233.92 70.6683 234.01 71.115 234.19C71.5683 234.363 71.9616 234.613 72.295 234.94C72.635 235.26 72.895 235.637 73.075 236.07C73.2616 236.503 73.355 236.98 73.355 237.5C73.355 238.02 73.2616 238.497 73.075 238.93C72.895 239.363 72.635 239.743 72.295 240.07C71.9616 240.39 71.5683 240.64 71.115 240.82C70.6683 240.993 70.1783 241.08 69.645 241.08ZM69.645 240.19C70.0316 240.19 70.3883 240.123 70.715 239.99C71.0483 239.857 71.335 239.67 71.575 239.43C71.8216 239.183 72.0116 238.897 72.145 238.57C72.285 238.243 72.355 237.887 72.355 237.5C72.355 237.113 72.285 236.757 72.145 236.43C72.0116 236.103 71.8216 235.82 71.575 235.58C71.335 235.333 71.0483 235.143 70.715 235.01C70.3883 234.877 70.0316 234.81 69.645 234.81C69.2516 234.81 68.8883 234.877 68.555 235.01C68.2283 235.143 67.9416 235.333 67.695 235.58C67.4483 235.82 67.255 236.103 67.115 236.43C66.9816 236.757 66.915 237.113 66.915 237.5C66.915 237.887 66.9816 238.243 67.115 238.57C67.255 238.897 67.4483 239.183 67.695 239.43C67.9416 239.67 68.2283 239.857 68.555 239.99C68.8883 240.123 69.2516 240.19 69.645 240.19ZM77.7534 241.06C77.3134 241.06 76.9101 240.96 76.5434 240.76C76.1834 240.553 75.8934 240.25 75.6734 239.85C75.4601 239.45 75.3534 238.95 75.3534 238.35C75.3534 237.75 75.4567 237.25 75.6634 236.85C75.8767 236.45 76.1634 236.15 76.5234 235.95C76.8901 235.75 77.3001 235.65 77.7534 235.65C78.2734 235.65 78.7334 235.763 79.1334 235.99C79.5334 236.217 79.8501 236.533 80.0834 236.94C80.3167 237.34 80.4334 237.81 80.4334 238.35C80.4334 238.89 80.3167 239.363 80.0834 239.77C79.8501 240.177 79.5334 240.493 79.1334 240.72C78.7334 240.947 78.2734 241.06 77.7534 241.06ZM74.9434 242.94V235.7H75.8634V237.13L75.8034 238.36L75.9034 239.59V242.94H74.9434ZM77.6734 240.22C78.0134 240.22 78.3167 240.143 78.5834 239.99C78.8567 239.837 79.0701 239.62 79.2234 239.34C79.3834 239.053 79.4634 238.723 79.4634 238.35C79.4634 237.97 79.3834 237.643 79.2234 237.37C79.0701 237.09 78.8567 236.873 78.5834 236.72C78.3167 236.567 78.0134 236.49 77.6734 236.49C77.3401 236.49 77.0367 236.567 76.7634 236.72C76.4967 236.873 76.2834 237.09 76.1234 237.37C75.9701 237.643 75.8934 237.97 75.8934 238.35C75.8934 238.723 75.9701 239.053 76.1234 239.34C76.2834 239.62 76.4967 239.837 76.7634 239.99C77.0367 240.143 77.3401 240.22 77.6734 240.22ZM83.7798 241.06C83.2465 241.06 82.8331 240.917 82.5398 240.63C82.2465 240.343 82.0998 239.933 82.0998 239.4V234.54H83.0598V239.36C83.0598 239.647 83.1298 239.867 83.2698 240.02C83.4165 240.173 83.6231 240.25 83.8898 240.25C84.1898 240.25 84.4398 240.167 84.6398 240L84.9398 240.69C84.7931 240.817 84.6165 240.91 84.4098 240.97C84.2098 241.03 83.9998 241.06 83.7798 241.06ZM81.1998 236.49V235.7H84.5798V236.49H81.1998ZM86.3004 241V235.7H87.2604V241H86.3004ZM86.7804 234.68C86.5938 234.68 86.4371 234.62 86.3104 234.5C86.1904 234.38 86.1304 234.233 86.1304 234.06C86.1304 233.88 86.1904 233.73 86.3104 233.61C86.4371 233.49 86.5938 233.43 86.7804 233.43C86.9671 233.43 87.1204 233.49 87.2404 233.61C87.3671 233.723 87.4304 233.867 87.4304 234.04C87.4304 234.22 87.3704 234.373 87.2504 234.5C87.1304 234.62 86.9738 234.68 86.7804 234.68ZM91.5634 241.06C91.0301 241.06 90.5567 240.943 90.1434 240.71C89.7301 240.477 89.4034 240.157 89.1634 239.75C88.9234 239.337 88.8034 238.87 88.8034 238.35C88.8034 237.823 88.9234 237.357 89.1634 236.95C89.4034 236.543 89.7301 236.227 90.1434 236C90.5567 235.767 91.0301 235.65 91.5634 235.65C92.0901 235.65 92.5601 235.767 92.9734 236C93.3934 236.227 93.7201 236.543 93.9534 236.95C94.1934 237.35 94.3134 237.817 94.3134 238.35C94.3134 238.877 94.1934 239.343 93.9534 239.75C93.7201 240.157 93.3934 240.477 92.9734 240.71C92.5601 240.943 92.0901 241.06 91.5634 241.06ZM91.5634 240.22C91.9034 240.22 92.2067 240.143 92.4734 239.99C92.7467 239.837 92.9601 239.62 93.1134 239.34C93.2667 239.053 93.3434 238.723 93.3434 238.35C93.3434 237.97 93.2667 237.643 93.1134 237.37C92.9601 237.09 92.7467 236.873 92.4734 236.72C92.2067 236.567 91.9034 236.49 91.5634 236.49C91.2234 236.49 90.9201 236.567 90.6534 236.72C90.3867 236.873 90.1734 237.09 90.0134 237.37C89.8534 237.643 89.7734 237.97 89.7734 238.35C89.7734 238.723 89.8534 239.053 90.0134 239.34C90.1734 239.62 90.3867 239.837 90.6534 239.99C90.9201 240.143 91.2234 240.22 91.5634 240.22ZM98.6711 235.65C99.1044 235.65 99.4844 235.733 99.8111 235.9C100.144 236.067 100.404 236.32 100.591 236.66C100.778 237 100.871 237.43 100.871 237.95V241H99.9111V238.06C99.9111 237.547 99.7844 237.16 99.5311 236.9C99.2844 236.64 98.9344 236.51 98.4811 236.51C98.1411 236.51 97.8444 236.577 97.5911 236.71C97.3377 236.843 97.1411 237.04 97.0011 237.3C96.8677 237.56 96.8011 237.883 96.8011 238.27V241H95.8411V235.7H96.7611V237.13L96.6111 236.75C96.7844 236.403 97.0511 236.133 97.4111 235.94C97.7711 235.747 98.1911 235.65 98.6711 235.65Z" fill="black"/>
<rect opacity="0.4" x="15.5" y="18.5" width="227" height="32" rx="4.5" stroke="#777777"/>
<rect opacity="0.4" x="15.5" y="57.5" width="227" height="32" rx="4.5" stroke="#777777"/>
<rect opacity="0.4" x="15.5" y="95.5" width="227" height="32" rx="4.5" stroke="#777777"/>
<rect opacity="0.4" x="15.5" y="137.5" width="227" height="32" rx="4.5" stroke="#777777"/>
<rect opacity="0.4" x="15.5" y="179.5" width="227" height="32" rx="4.5" stroke="#777777"/>
<rect opacity="0.4" x="15.5" y="221.5" width="227" height="32" rx="4.5" stroke="#777777"/>
<g opacity="0.4">
<path fill-rule="evenodd" clip-rule="evenodd" d="M216.261 148.884H234.248V150.384H216.261V148.884Z" fill="#777777"/>
<path fill-rule="evenodd" clip-rule="evenodd" d="M228.609 152.496H230.117V153.996H228.609V152.496Z" fill="#777777"/>
<path fill-rule="evenodd" clip-rule="evenodd" d="M224.505 152.496H226.013V153.996H224.505V152.496Z" fill="#777777"/>
<path fill-rule="evenodd" clip-rule="evenodd" d="M220.391 152.496H221.9V153.996H220.391V152.496Z" fill="#777777"/>
<path fill-rule="evenodd" clip-rule="evenodd" d="M228.609 156.091H230.117V157.591H228.609V156.091Z" fill="#777777"/>
<path fill-rule="evenodd" clip-rule="evenodd" d="M224.505 156.091H226.013V157.591H224.505V156.091Z" fill="#777777"/>
<path fill-rule="evenodd" clip-rule="evenodd" d="M220.391 156.091H221.9V157.591H220.391V156.091Z" fill="#777777"/>
<path fill-rule="evenodd" clip-rule="evenodd" d="M229.741 142.035V146.579H228.241V142.035H229.741Z" fill="#777777"/>
<path fill-rule="evenodd" clip-rule="evenodd" d="M222.269 142.035V146.579H220.769V142.035H222.269Z" fill="#777777"/>
<path fill-rule="evenodd" clip-rule="evenodd" d="M216.176 143.495H234.326V162.035H216.176V143.495ZM217.676 144.995V160.535H232.826V144.995H217.676Z" fill="#777777"/>
</g>
<g opacity="0.4">
<path fill-rule="evenodd" clip-rule="evenodd" d="M216.261 190.884H234.248V192.384H216.261V190.884Z" fill="#777777"/>
<path fill-rule="evenodd" clip-rule="evenodd" d="M228.609 194.496H230.117V195.996H228.609V194.496Z" fill="#777777"/>
<path fill-rule="evenodd" clip-rule="evenodd" d="M224.505 194.496H226.013V195.996H224.505V194.496Z" fill="#777777"/>
<path fill-rule="evenodd" clip-rule="evenodd" d="M220.391 194.496H221.9V195.996H220.391V194.496Z" fill="#777777"/>
<path fill-rule="evenodd" clip-rule="evenodd" d="M228.609 198.091H230.117V199.591H228.609V198.091Z" fill="#777777"/>
<path fill-rule="evenodd" clip-rule="evenodd" d="M224.505 198.091H226.013V199.591H224.505V198.091Z" fill="#777777"/>
<path fill-rule="evenodd" clip-rule="evenodd" d="M220.391 198.091H221.9V199.591H220.391V198.091Z" fill="#777777"/>
<path fill-rule="evenodd" clip-rule="evenodd" d="M229.741 184.035V188.579H228.241V184.035H229.741Z" fill="#777777"/>
<path fill-rule="evenodd" clip-rule="evenodd" d="M222.269 184.035V188.579H220.769V184.035H222.269Z" fill="#777777"/>
<path fill-rule="evenodd" clip-rule="evenodd" d="M216.176 185.495H234.326V204.035H216.176V185.495ZM217.676 186.995V202.535H232.826V186.995H217.676Z" fill="#777777"/>
</g>
</g>
<defs>
<filter id="filter0_d_224_2197" x="0" y="0" width="259" height="277" filterUnits="userSpaceOnUse" color-interpolation-filters="sRGB">
<feFlood flood-opacity="0" result="BackgroundImageFix"/>
<feColorMatrix in="SourceAlpha" type="matrix" values="0 0 0 0 0 0 0 0 0 0 0 0 0 0 0 0 0 0 127 0" result="hardAlpha"/>
<feOffset/>
<feGaussianBlur stdDeviation="5"/>
<feComposite in2="hardAlpha" operator="out"/>
<feColorMatrix type="matrix" values="0 0 0 0 0 0 0 0 0 0 0 0 0 0 0 0 0 0 0.25 0"/>
<feBlend mode="normal" in2="BackgroundImageFix" result="effect1_dropShadow_224_2197"/>
<feBlend mode="normal" in="SourceGraphic" in2="effect1_dropShadow_224_2197" result="shape"/>
</filter>
</defs>
</svg>
