<svg width="46" height="46" viewBox="0 0 46 46" fill="none" xmlns="http://www.w3.org/2000/svg">
<path d="M23 0C10.2973 0 0 10.2975 0 22.9996C0 35.7023 10.2973 46 23 46C35.7026 46 46 35.7024 46 22.9996C46 10.2975 35.7027 0 23 0ZM22.9996 36.1093C16.7782 36.1066 12.3335 35.2613 12.4373 34.4869C13.0025 30.2545 16.4154 29.8475 18.5827 28.1134C19.5559 27.3348 20.029 27.5294 20.029 26.2316C20.029 25.7776 20.029 24.9337 20.029 24.1552C19.4447 23.5066 19.2323 23.5877 18.7383 21.041C17.7399 21.041 17.8042 19.7431 17.3333 18.5923C16.9658 17.6953 17.2445 17.308 17.5528 17.1399C17.3864 16.2532 17.4915 13.2758 18.7685 11.726L18.5671 10.3201C18.5671 10.3201 18.9687 10.4208 19.9728 10.2193C20.9773 10.0192 23.3872 9.41697 24.7933 10.6215C28.1675 11.1176 29.0636 13.8889 28.4054 17.1195C28.7286 17.2747 29.0503 17.6552 28.666 18.5923C28.1954 19.7431 28.2597 21.041 27.2614 21.041C26.7676 23.5877 26.5549 23.5066 25.9707 24.1552C25.9707 24.9338 25.9707 25.7776 25.9707 26.2316C25.9707 27.5294 26.4434 27.3348 27.4165 28.1134C29.5841 29.8474 32.9968 30.2544 33.5624 34.4869C33.6658 35.2613 29.2213 36.1066 22.9996 36.1093Z" fill="#4DA4FC"/>
</svg>
