<svg width="504" height="413" viewBox="0 0 504 413" fill="none" xmlns="http://www.w3.org/2000/svg">
<path d="M459.287 7.7533H80.4733C63.889 7.7533 50.4447 21.1976 50.4447 37.7819V326.074C50.4447 342.658 63.889 356.102 80.4733 356.102H459.287C475.871 356.102 489.315 342.658 489.315 326.074V37.7819C489.315 21.1976 475.871 7.7533 459.287 7.7533Z" fill="#4A52F7"/>
<path d="M459.287 0H80.4733C63.889 0 50.4447 13.4443 50.4447 30.0286V318.32C50.4447 334.905 63.889 348.349 80.4733 348.349H459.287C475.871 348.349 489.315 334.905 489.315 318.32V30.0286C489.315 13.4443 475.871 0 459.287 0Z" fill="#4DA4FC"/>
<path d="M320.07 292.563H219.69V406.189H320.07V292.563Z" fill="#4DA4FC"/>
<path d="M362.669 385.083H187.487C179.779 385.083 173.53 391.332 173.53 399.04V399.043C173.53 406.751 179.779 413 187.487 413H362.669C370.377 413 376.625 406.751 376.625 399.043V399.04C376.625 391.332 370.377 385.083 362.669 385.083Z" fill="#4DA4FC"/>
<path d="M464.083 26.4799H72.9999V298.765H464.083V26.4799Z" fill="#CBEDE1"/>
<path d="M464.083 26.4799H72.9999V44.8506H464.083V26.4799Z" fill="#4A52F7"/>
<path d="M453.988 40.7041C456.771 40.7041 459.028 38.4477 459.028 35.6644C459.028 32.8811 456.771 30.6248 453.988 30.6248C451.205 30.6248 448.948 32.8811 448.948 35.6644C448.948 38.4477 451.205 40.7041 453.988 40.7041Z" fill="#CBEDE1"/>
<path d="M472.313 249.348C484.145 249.348 493.737 239.757 493.737 227.924C493.737 216.092 484.145 206.5 472.313 206.5C460.481 206.5 450.889 216.092 450.889 227.924C450.889 239.757 460.481 249.348 472.313 249.348Z" fill="#4A52F7"/>
<g opacity="0.29">
<path d="M472.313 241.813C479.983 241.813 486.201 235.595 486.201 227.924C486.201 220.254 479.983 214.036 472.313 214.036C464.642 214.036 458.424 220.254 458.424 227.924C458.424 235.595 464.642 241.813 472.313 241.813Z" fill="white"/>
</g>
<path d="M467.766 232.885L469.063 230.876C469.86 231.587 470.876 232.006 471.942 232.064C473.087 232.064 473.591 231.589 473.591 230.668C473.591 228.59 468.259 228.627 468.259 224.982C468.259 222.638 469.882 221.146 472.442 221.146C473.169 221.135 473.889 221.283 474.553 221.579C475.217 221.875 475.809 222.312 476.287 222.86L474.802 224.562C474.522 224.254 474.182 224.005 473.805 223.83C473.427 223.655 473.018 223.557 472.601 223.542C471.629 223.542 471.102 223.93 471.102 224.842C471.102 226.768 476.435 226.6 476.435 230.461C476.435 232.781 474.899 234.459 471.942 234.459C470.412 234.425 468.939 233.87 467.766 232.885ZM471.32 219.168H473.291V222.077H471.32V219.168ZM471.32 233.248H473.291V236.44H471.32V233.248Z" fill="white"/>
<path d="M486.106 192.852C495.937 192.852 503.906 184.883 503.906 175.052C503.906 165.221 495.937 157.252 486.106 157.252C476.275 157.252 468.306 165.221 468.306 175.052C468.306 184.883 476.275 192.852 486.106 192.852Z" fill="#4DA4FC"/>
<g opacity="0.29">
<path d="M486.106 186.591C492.479 186.591 497.645 181.425 497.645 175.052C497.645 168.679 492.479 163.513 486.106 163.513C479.733 163.513 474.567 168.679 474.567 175.052C474.567 181.425 479.733 186.591 486.106 186.591Z" fill="white"/>
</g>
<path d="M482.329 179.174L483.406 177.504C484.068 178.095 484.912 178.444 485.798 178.492C486.75 178.492 487.168 178.098 487.168 177.329C487.168 175.603 482.738 175.634 482.738 172.605C482.738 170.658 484.086 169.418 486.213 169.418C486.817 169.409 487.416 169.532 487.968 169.778C488.519 170.024 489.011 170.387 489.408 170.842L488.174 172.256C487.941 172 487.66 171.793 487.346 171.648C487.032 171.502 486.692 171.421 486.346 171.409C485.539 171.409 485.101 171.734 485.101 172.489C485.101 174.089 489.531 173.95 489.531 177.158C489.531 179.085 488.255 180.479 485.798 180.479C484.527 180.452 483.303 179.991 482.329 179.174ZM485.281 167.776H486.919V170.193H485.281V167.776ZM485.281 179.475H486.919V182.125H485.281V179.475Z" fill="white"/>
<path d="M110.751 80.3935C108.353 80.3903 105.968 80.734 103.669 81.4138C100.943 73.6629 95.8775 66.95 89.1713 62.2032C82.4652 57.4564 74.45 54.91 66.2339 54.9161C58.0177 54.9223 50.0064 57.4806 43.3074 62.2374C36.6083 66.9942 31.5524 73.7147 28.8385 81.4696C27.7187 81.3227 26.5905 81.2486 25.4611 81.2479C18.7079 81.2493 12.2318 83.9331 7.45706 88.7088C2.68233 93.4846 -1.5336e-07 99.9612 0 106.714V106.763C0.00862565 111.831 2.02752 116.688 5.61356 120.269C9.19961 123.849 14.0598 125.861 19.1274 125.862H116.568C121.602 125.863 126.433 123.879 130.013 120.34C133.594 116.802 135.635 111.995 135.694 106.962C135.703 106.186 135.707 105.625 135.707 105.35C135.707 98.7312 133.077 92.3836 128.397 87.7035C123.717 83.0234 117.369 80.3939 110.751 80.3935Z" fill="#9EBCEA"/>
<path d="M164.07 226.485C163.681 226.485 163.296 226.409 162.937 226.26C162.578 226.111 162.252 225.893 161.977 225.618C161.702 225.343 161.484 225.017 161.335 224.658C161.187 224.299 161.11 223.914 161.11 223.525V209.195C161.11 201.272 167.99 194.825 176.448 194.825C184.905 194.825 191.786 201.272 191.786 209.195V222.541C191.774 223.318 191.456 224.059 190.903 224.603C190.349 225.148 189.603 225.454 188.826 225.454C188.05 225.454 187.304 225.148 186.75 224.603C186.196 224.059 185.879 223.318 185.867 222.541V209.195C185.867 204.536 181.641 200.744 176.448 200.744C171.255 200.744 167.03 204.535 167.03 209.195V223.528C167.029 224.313 166.717 225.065 166.162 225.619C165.607 226.174 164.854 226.485 164.07 226.485Z" fill="#4DA4FC"/>
<path opacity="0.1" d="M164.07 226.485C163.681 226.485 163.296 226.409 162.937 226.26C162.578 226.111 162.252 225.893 161.977 225.618C161.702 225.343 161.484 225.017 161.335 224.658C161.187 224.299 161.11 223.914 161.11 223.525V209.195C161.11 201.272 167.99 194.825 176.448 194.825C184.905 194.825 191.786 201.272 191.786 209.195V222.541C191.774 223.318 191.456 224.059 190.903 224.603C190.349 225.148 189.603 225.454 188.826 225.454C188.05 225.454 187.304 225.148 186.75 224.603C186.196 224.059 185.879 223.318 185.867 222.541V209.195C185.867 204.536 181.641 200.744 176.448 200.744C171.255 200.744 167.03 204.535 167.03 209.195V223.528C167.029 224.313 166.717 225.065 166.162 225.619C165.607 226.174 164.854 226.485 164.07 226.485Z" fill="#0F1011"/>
<path d="M199.056 217.87H153.84C151.203 217.87 149.065 220.007 149.065 222.644V255.73C149.065 258.367 151.203 260.505 153.84 260.505H199.056C201.693 260.505 203.83 258.367 203.83 255.73V222.644C203.83 220.007 201.693 217.87 199.056 217.87Z" fill="#4A52F7"/>
<path d="M171.947 233.546C171.947 234.391 172.185 235.219 172.633 235.935C173.081 236.651 173.722 237.227 174.482 237.597V244.513C174.482 245.035 174.689 245.535 175.058 245.903C175.427 246.272 175.926 246.479 176.448 246.479C176.969 246.479 177.469 246.272 177.838 245.903C178.206 245.535 178.413 245.035 178.413 244.513V237.597C179.137 237.246 179.753 236.708 180.198 236.038C180.643 235.369 180.9 234.592 180.944 233.79C180.987 232.987 180.815 232.187 180.444 231.474C180.074 230.76 179.52 230.159 178.838 229.732C178.157 229.305 177.374 229.068 176.571 229.047C175.767 229.025 174.972 229.219 174.269 229.608C173.565 229.997 172.979 230.568 172.571 231.26C172.163 231.953 171.947 232.742 171.947 233.546Z" fill="#4DA4FC"/>
<path opacity="0.1" d="M171.947 233.546C171.947 234.391 172.185 235.219 172.633 235.935C173.081 236.651 173.722 237.227 174.482 237.597V244.513C174.482 245.035 174.689 245.535 175.058 245.903C175.427 246.272 175.926 246.479 176.448 246.479C176.969 246.479 177.469 246.272 177.838 245.903C178.206 245.535 178.413 245.035 178.413 244.513V237.597C179.137 237.246 179.753 236.708 180.198 236.038C180.643 235.369 180.9 234.592 180.944 233.79C180.987 232.987 180.815 232.187 180.444 231.474C180.074 230.76 179.52 230.159 178.838 229.732C178.157 229.305 177.374 229.068 176.571 229.047C175.767 229.025 174.972 229.219 174.269 229.608C173.565 229.997 172.979 230.568 172.571 231.26C172.163 231.953 171.947 232.742 171.947 233.546Z" fill="#0F1011"/>
<path d="M93.1228 241.001H11.6501C8.93746 241.001 6.7384 243.2 6.7384 245.913V292.062C6.7384 294.775 8.93746 296.974 11.6501 296.974H93.1228C95.8355 296.974 98.0345 294.775 98.0345 292.062V245.913C98.0345 243.2 95.8355 241.001 93.1228 241.001Z" fill="#4DA4FC"/>
<path d="M25.4789 248.565H16.9666C15.4948 248.565 14.3018 249.758 14.3018 251.23V256.188C14.3018 257.659 15.4948 258.852 16.9666 258.852H25.4789C26.9507 258.852 28.1438 257.659 28.1438 256.188V251.23C28.1438 249.758 26.9507 248.565 25.4789 248.565Z" fill="white"/>
<path d="M28.1438 249.707V252.12H23.4538L22.6979 251.364V248.565H27.0056C27.3078 248.566 27.5973 248.687 27.8106 248.901C28.024 249.115 28.1438 249.405 28.1438 249.707Z" fill="#4750FF"/>
<path d="M28.1438 255.297V257.711C28.1438 258.013 28.024 258.303 27.8106 258.517C27.5973 258.731 27.3078 258.852 27.0056 258.852H22.6979V255.978L23.4538 255.297H28.1438Z" fill="#4750FF"/>
<path d="M19.6725 248.565V251.364L18.9917 252.12H14.3018V249.707C14.3018 249.557 14.3313 249.408 14.3886 249.27C14.446 249.131 14.5301 249.006 14.636 248.9C14.742 248.794 14.8678 248.71 15.0063 248.652C15.1448 248.595 15.2932 248.565 15.443 248.565H19.6725Z" fill="#4750FF"/>
<path d="M19.6725 255.978V258.852H15.443C15.1404 258.852 14.8501 258.732 14.636 258.518C14.422 258.304 14.3018 258.014 14.3018 257.711V255.297H18.9917L19.6725 255.978Z" fill="#4750FF"/>
<path d="M29.7968 268.462H15.4756C15.1694 268.454 14.8784 268.327 14.6646 268.108C14.4508 267.888 14.3312 267.594 14.3312 267.288C14.3312 266.982 14.4508 266.687 14.6646 266.468C14.8784 266.249 15.1694 266.122 15.4756 266.114H29.7968C30.103 266.122 30.394 266.249 30.6078 266.468C30.8216 266.687 30.9412 266.982 30.9412 267.288C30.9412 267.594 30.8216 267.888 30.6078 268.108C30.394 268.327 30.103 268.454 29.7968 268.462Z" fill="white"/>
<path d="M49.9555 268.462H35.6304C35.3242 268.454 35.0332 268.327 34.8194 268.107C34.6056 267.888 34.486 267.594 34.486 267.288C34.486 266.981 34.6056 266.687 34.8194 266.468C35.0332 266.248 35.3242 266.121 35.6304 266.113H49.9555C50.2617 266.121 50.5527 266.248 50.7665 266.468C50.9803 266.687 51.0999 266.981 51.0999 267.288C51.0999 267.594 50.9803 267.888 50.7665 268.107C50.5527 268.327 50.2617 268.454 49.9555 268.462Z" fill="white"/>
<path d="M70.1078 268.462H55.7843C55.4781 268.454 55.1871 268.327 54.9733 268.107C54.7595 267.888 54.6399 267.594 54.6399 267.288C54.6399 266.981 54.7595 266.687 54.9733 266.468C55.1871 266.248 55.4781 266.121 55.7843 266.113H70.1078C70.414 266.121 70.7051 266.248 70.9188 266.468C71.1326 266.687 71.2523 266.981 71.2523 267.288C71.2523 267.594 71.1326 267.888 70.9188 268.107C70.7051 268.327 70.414 268.454 70.1078 268.462Z" fill="white"/>
<path d="M90.2618 268.462H75.9391C75.7824 268.466 75.6264 268.439 75.4804 268.381C75.3344 268.324 75.2014 268.238 75.0891 268.129C74.9768 268.02 74.8876 267.889 74.8266 267.744C74.7657 267.6 74.7343 267.445 74.7343 267.288C74.7343 267.131 74.7657 266.976 74.8266 266.831C74.8876 266.687 74.9768 266.556 75.0891 266.447C75.2014 266.337 75.3344 266.251 75.4804 266.194C75.6264 266.137 75.7824 266.11 75.9391 266.114H90.2618C90.4186 266.11 90.5745 266.137 90.7205 266.194C90.8665 266.251 90.9996 266.337 91.1119 266.447C91.2241 266.556 91.3134 266.687 91.3743 266.831C91.4352 266.976 91.4666 267.131 91.4666 267.288C91.4666 267.445 91.4352 267.6 91.3743 267.744C91.3134 267.889 91.2241 268.02 91.1119 268.129C90.9996 268.238 90.8665 268.324 90.7205 268.381C90.5745 268.439 90.4186 268.466 90.2618 268.462Z" fill="white"/>
<path d="M90.4704 281.166C90.4704 282.771 89.8329 284.31 88.698 285.445C87.5631 286.58 86.0239 287.217 84.419 287.217C82.814 287.217 81.2748 286.58 80.1399 285.445C79.0051 284.31 78.3675 282.771 78.3675 281.166C78.3684 280.264 78.5729 279.373 78.9659 278.561C79.3588 277.749 79.93 277.036 80.6369 276.476C81.5209 275.752 82.5926 275.295 83.7267 275.158C84.8609 275.021 86.0106 275.209 87.0418 275.701C88.0729 276.192 88.9428 276.967 89.5499 277.935C90.1571 278.903 90.4763 280.023 90.4704 281.166Z" fill="white"/>
<path d="M77.6116 285.855C76.7247 286.577 75.6513 287.032 74.5161 287.169C73.3808 287.305 72.2301 287.117 71.1974 286.626C70.1648 286.135 69.2925 285.361 68.6818 284.394C68.0711 283.428 67.7469 282.308 67.7469 281.164C67.7469 280.021 68.0711 278.901 68.6818 277.934C69.2925 276.967 70.1648 276.194 71.1974 275.703C72.2301 275.212 73.3808 275.023 74.5161 275.16C75.6513 275.296 76.7247 275.752 77.6116 276.473C76.911 277.04 76.3443 277.754 75.9519 278.564C75.5596 279.375 75.3514 280.263 75.3422 281.163C75.3427 282.066 75.547 282.956 75.94 283.769C76.333 284.581 76.9044 285.294 77.6116 285.855Z" fill="#4750FF"/>
<path d="M11.1338 331.562H93.6384V313.564H11.1338V331.562Z" fill="#4750FF"/>
<path d="M422.181 168.523H385.072L368.591 152.041C368.494 151.956 368.417 151.852 368.363 151.735C368.31 151.618 368.283 151.49 368.283 151.362C368.283 151.233 368.31 151.106 368.363 150.989C368.417 150.872 368.494 150.767 368.591 150.682L385.788 133.486C385.873 133.389 385.977 133.311 386.094 133.258C386.211 133.204 386.338 133.177 386.467 133.177C386.596 133.177 386.723 133.204 386.84 133.258C386.957 133.311 387.061 133.389 387.146 133.486L387.969 134.309L391.364 137.703L397.583 143.922L400.053 146.393L406.272 152.615L412.614 158.957L415.373 161.715L419.483 165.825L422.181 168.523Z" fill="#8DDBE0"/>
<path opacity="0.47" d="M418.108 168.523H389.145L374.707 154.088C375.425 153.366 375.828 152.388 375.828 151.369C375.828 150.35 375.425 149.372 374.707 148.65L383.75 139.607C384.473 140.325 385.45 140.727 386.469 140.727C387.488 140.727 388.466 140.325 389.189 139.607L389.976 140.395L402.312 152.731L408.64 159.058L416.895 167.309L418.108 168.523Z" fill="white"/>
<path d="M386.059 153.291C387.386 153.291 388.462 152.214 388.462 150.887C388.462 149.56 387.386 148.484 386.059 148.484C384.731 148.484 383.655 149.56 383.655 150.887C383.655 152.214 384.731 153.291 386.059 153.291Z" fill="#8DDBE0"/>
<path d="M404.558 168.523H392.041C390.674 166.945 389.956 164.907 390.033 162.82C390.109 160.734 390.974 158.754 392.453 157.28C392.576 157.157 392.706 157.035 392.836 156.919C394.414 155.531 396.462 154.796 398.563 154.863C400.663 154.93 402.66 155.795 404.146 157.28C404.866 158.001 405.446 158.848 405.858 159.779C406.494 161.21 406.71 162.792 406.48 164.34C406.249 165.889 405.583 167.339 404.558 168.523Z" fill="#8DDBE0"/>
<path d="M394.323 166.384L395.185 165.525C394.946 165.216 394.749 164.877 394.601 164.517C394.439 164.149 394.346 163.755 394.325 163.354L395.727 163.052C395.768 163.394 395.852 163.729 395.977 164.05C396.086 164.324 396.25 164.572 396.458 164.781C396.631 164.985 396.87 165.121 397.134 165.164C397.25 165.165 397.366 165.141 397.472 165.093C397.578 165.044 397.673 164.973 397.748 164.884C397.821 164.814 397.877 164.73 397.913 164.636C397.95 164.542 397.965 164.442 397.959 164.341C397.945 164.098 397.904 163.857 397.834 163.623C397.757 163.359 397.672 163.08 397.572 162.793C397.472 162.506 397.403 162.209 397.365 161.907C397.328 161.611 397.342 161.312 397.409 161.021C397.489 160.707 397.658 160.422 397.894 160.2C398.262 159.804 398.759 159.554 399.296 159.495C399.829 159.455 400.359 159.604 400.793 159.916L401.679 159.03L402.513 159.865L401.644 160.733C401.866 161.022 402.027 161.353 402.117 161.705C402.198 162.037 402.233 162.379 402.221 162.72L400.861 162.806C400.856 162.545 400.815 162.286 400.737 162.036C400.658 161.81 400.527 161.605 400.354 161.439C400.198 161.26 399.986 161.138 399.752 161.094C399.641 161.089 399.531 161.11 399.429 161.154C399.328 161.199 399.238 161.267 399.167 161.353C399.1 161.419 399.048 161.5 399.017 161.59C398.986 161.679 398.975 161.775 398.987 161.869C399.01 162.104 399.061 162.336 399.137 162.56C399.22 162.819 399.313 163.09 399.417 163.374C399.519 163.659 399.59 163.955 399.628 164.255C399.665 164.556 399.646 164.86 399.572 165.154C399.479 165.483 399.297 165.78 399.047 166.014C398.676 166.405 398.185 166.661 397.652 166.741C397.087 166.801 396.519 166.653 396.056 166.324L395.162 167.219L394.323 166.384Z" fill="white"/>
<path d="M420.217 168.523H393.01L390.669 159.928L388.379 151.506V151.499L387.737 149.173V149.165L385.397 140.571L384.241 136.323C384.201 136.201 384.186 136.072 384.199 135.943C384.211 135.815 384.251 135.691 384.315 135.579C384.379 135.467 384.466 135.37 384.57 135.294C384.675 135.218 384.794 135.165 384.92 135.139L387.968 134.308L408.386 128.754C408.508 128.712 408.637 128.697 408.765 128.709C408.893 128.721 409.017 128.76 409.129 128.824C409.241 128.887 409.338 128.974 409.415 129.078C409.491 129.181 409.544 129.3 409.571 129.426L419.48 165.821L420.217 168.523Z" fill="#8DDBE0"/>
<path opacity="0.47" d="M417.227 168.523H395.999L395.534 166.84L395.185 165.526V165.519L394.578 163.301L392.837 156.916L388.54 141.134C389.068 140.995 389.558 140.741 389.977 140.391C390.376 140.058 390.705 139.649 390.943 139.188C391.181 138.726 391.325 138.222 391.364 137.704C391.398 137.269 391.356 136.832 391.241 136.411L403.585 133.052C403.856 134.034 404.503 134.868 405.387 135.374C406.27 135.88 407.318 136.017 408.301 135.754L415.372 161.712L416.896 167.31L417.227 168.523Z" fill="white"/>
<path d="M399.984 146.398C401.311 146.398 402.387 145.322 402.387 143.994C402.387 142.667 401.311 141.591 399.984 141.591C398.656 141.591 397.58 142.667 397.58 143.994C397.58 145.322 398.656 146.398 399.984 146.398Z" fill="#8DDBE0"/>
<path d="M412.489 162.903C412.133 164.205 411.462 165.399 410.535 166.379C409.608 167.359 408.453 168.096 407.173 168.523H401.864C400.609 168.09 399.475 167.364 398.556 166.406C398.161 165.999 397.812 165.549 397.517 165.063C397.089 164.383 396.765 163.643 396.556 162.868C396.173 161.465 396.167 159.986 396.539 158.581C396.911 157.176 397.648 155.893 398.674 154.864C399.679 153.842 400.936 153.105 402.318 152.726C402.333 152.719 402.347 152.719 402.362 152.712C404.479 152.138 406.736 152.427 408.64 153.516C410.544 154.605 411.939 156.404 412.519 158.519C412.554 158.663 412.591 158.807 412.619 158.952C412.907 160.259 412.862 161.618 412.489 162.903Z" fill="#8DDBE0"/>
<path d="M399.463 161.55L400.637 161.23C400.582 160.845 400.579 160.453 400.629 160.067C400.671 159.668 400.786 159.281 400.966 158.923L402.333 159.358C402.199 159.674 402.105 160.007 402.054 160.347C402.013 160.639 402.032 160.936 402.109 161.221C402.157 161.483 402.298 161.72 402.505 161.888C402.606 161.948 402.718 161.984 402.835 161.995C402.951 162.006 403.068 161.991 403.178 161.951C403.276 161.926 403.367 161.88 403.445 161.816C403.524 161.752 403.587 161.672 403.632 161.581C403.741 161.363 403.824 161.133 403.88 160.896C403.946 160.63 404.008 160.346 404.064 160.043C404.12 159.744 404.208 159.452 404.325 159.172C404.439 158.896 404.601 158.644 404.802 158.424C405.028 158.191 405.316 158.027 405.632 157.953C406.147 157.791 406.704 157.821 407.199 158.036C407.681 158.266 408.067 158.659 408.289 159.145L409.498 158.818L409.808 159.957L408.622 160.28C408.672 160.64 408.647 161.007 408.55 161.358C408.455 161.685 408.316 161.998 408.136 162.288L406.914 161.688C407.039 161.459 407.131 161.213 407.188 160.959C407.232 160.723 407.22 160.48 407.152 160.249C407.106 160.016 406.982 159.806 406.8 159.652C406.707 159.593 406.601 159.555 406.49 159.544C406.38 159.532 406.269 159.547 406.165 159.586C406.073 159.61 405.988 159.655 405.916 159.717C405.845 159.779 405.788 159.856 405.751 159.944C405.655 160.16 405.583 160.387 405.539 160.62C405.484 160.882 405.43 161.163 405.378 161.464C405.325 161.763 405.24 162.055 405.123 162.334C405.006 162.613 404.838 162.868 404.628 163.086C404.384 163.326 404.079 163.494 403.746 163.572C403.229 163.728 402.675 163.706 402.172 163.51C401.651 163.281 401.232 162.871 400.994 162.355L399.774 162.688L399.463 161.55Z" fill="white"/>
<path d="M356.439 119.646H220.558V209.954H356.439V119.646Z" fill="#DEE8F5"/>
<path opacity="0.55" d="M357.958 118.197H217.593V141.147H357.958V118.197Z" fill="#C1D8ED"/>
<path d="M381.804 216.289H195.191V225.653H381.804V216.289Z" fill="#F3F5FD"/>
<path d="M375.258 206.925H201.737V216.289H375.258V206.925Z" fill="#F3F5FD"/>
<path d="M375.258 213.784H201.737V216.289H375.258V213.784Z" fill="#4DA4FC"/>
<path d="M381.804 223.148H195.191V225.653H381.804V223.148Z" fill="#4DA4FC"/>
<path d="M388.064 225.653H189.181V235.017H388.064V225.653Z" fill="#F3F5FD"/>
<path d="M388.064 232.512H189.181V235.017H388.064V232.512Z" fill="#4DA4FC"/>
<path d="M229.967 126.685H214.95V202.711H229.967V126.685Z" fill="#F3F5FD"/>
<path d="M267.847 126.685H252.83V202.711H267.847V126.685Z" fill="#F3F5FD"/>
<path d="M362.046 126.685H347.029V202.711H362.046V126.685Z" fill="#F3F5FD"/>
<path d="M210.429 119.646H234.489V128.274C234.489 128.417 234.461 128.559 234.406 128.691C234.351 128.823 234.271 128.943 234.17 129.044C234.069 129.146 233.948 129.226 233.816 129.281C233.684 129.336 233.542 129.364 233.399 129.364H211.514C211.371 129.364 211.23 129.336 211.097 129.281C210.965 129.226 210.845 129.146 210.744 129.044C210.642 128.943 210.562 128.823 210.507 128.691C210.453 128.559 210.424 128.417 210.424 128.274V119.646H210.429Z" fill="#4DA4FC"/>
<path d="M248.309 119.647H272.369V128.274C272.369 128.417 272.341 128.559 272.286 128.691C272.231 128.823 272.151 128.943 272.049 129.045C271.948 129.146 271.828 129.226 271.696 129.281C271.564 129.336 271.422 129.364 271.279 129.364H249.399C249.256 129.364 249.114 129.336 248.982 129.281C248.849 129.226 248.729 129.146 248.628 129.045C248.527 128.943 248.446 128.823 248.392 128.691C248.337 128.559 248.309 128.417 248.309 128.274V119.647Z" fill="#4DA4FC"/>
<path d="M342.508 119.647H366.568V128.274C366.568 128.417 366.54 128.559 366.485 128.691C366.43 128.823 366.35 128.943 366.248 129.045C366.147 129.146 366.027 129.226 365.895 129.281C365.763 129.336 365.621 129.364 365.478 129.364H343.598C343.455 129.364 343.313 129.336 343.181 129.281C343.048 129.226 342.928 129.146 342.827 129.045C342.726 128.943 342.645 128.823 342.591 128.691C342.536 128.559 342.508 128.417 342.508 128.274V119.647Z" fill="#4DA4FC"/>
<path d="M211.514 200.109H233.394C233.538 200.109 233.679 200.137 233.812 200.192C233.944 200.247 234.064 200.327 234.165 200.428C234.266 200.53 234.347 200.65 234.401 200.782C234.456 200.914 234.484 201.056 234.484 201.199V206.925H210.429V201.199C210.429 200.911 210.543 200.634 210.747 200.43C210.95 200.226 211.226 200.11 211.514 200.109Z" fill="#4DA4FC"/>
<path d="M249.399 200.109H271.279C271.422 200.109 271.564 200.137 271.696 200.192C271.828 200.247 271.948 200.327 272.049 200.428C272.151 200.53 272.231 200.65 272.286 200.782C272.341 200.914 272.369 201.056 272.369 201.199V206.925H248.309V201.199C248.309 201.056 248.337 200.914 248.392 200.782C248.446 200.65 248.527 200.53 248.628 200.428C248.729 200.327 248.849 200.247 248.982 200.192C249.114 200.137 249.256 200.109 249.399 200.109Z" fill="#4DA4FC"/>
<path d="M343.598 200.109H365.478C365.621 200.109 365.763 200.137 365.895 200.192C366.027 200.247 366.147 200.327 366.248 200.428C366.35 200.53 366.43 200.65 366.485 200.782C366.54 200.914 366.568 201.056 366.568 201.199V206.925H342.508V201.199C342.508 201.056 342.536 200.914 342.591 200.782C342.645 200.65 342.726 200.53 342.827 200.428C342.928 200.327 343.048 200.247 343.181 200.192C343.313 200.137 343.455 200.109 343.598 200.109Z" fill="#4DA4FC"/>
<path d="M220.55 133.535C220.55 133.118 220.212 132.779 219.794 132.779C219.377 132.779 219.038 133.118 219.038 133.535V195.862C219.038 196.279 219.377 196.618 219.794 196.618C220.212 196.618 220.55 196.279 220.55 195.862V133.535Z" fill="#4DA4FC"/>
<path d="M225.878 133.535C225.878 133.118 225.54 132.779 225.122 132.779C224.705 132.779 224.366 133.118 224.366 133.535V195.862C224.366 196.279 224.705 196.618 225.122 196.618C225.54 196.618 225.878 196.279 225.878 195.862V133.535Z" fill="#4DA4FC"/>
<path d="M258.431 133.535C258.431 133.118 258.093 132.779 257.675 132.779C257.258 132.779 256.919 133.118 256.919 133.535V195.862C256.919 196.279 257.258 196.618 257.675 196.618C258.093 196.618 258.431 196.279 258.431 195.862V133.535Z" fill="#4DA4FC"/>
<path d="M263.759 133.535C263.759 133.118 263.42 132.779 263.003 132.779C262.585 132.779 262.247 133.118 262.247 133.535V195.862C262.247 196.279 262.585 196.618 263.003 196.618C263.42 196.618 263.759 196.279 263.759 195.862V133.535Z" fill="#4DA4FC"/>
<path d="M325.335 126.685H310.318V202.711H325.335V126.685Z" fill="#F3F5FD"/>
<path d="M305.795 119.647H329.855V128.274C329.855 128.417 329.827 128.559 329.772 128.691C329.717 128.823 329.637 128.943 329.536 129.045C329.434 129.146 329.314 129.226 329.182 129.281C329.05 129.336 328.908 129.364 328.765 129.364H306.885C306.742 129.364 306.6 129.336 306.468 129.281C306.336 129.226 306.215 129.146 306.114 129.045C306.013 128.943 305.933 128.823 305.878 128.691C305.823 128.559 305.795 128.417 305.795 128.274V119.647Z" fill="#4DA4FC"/>
<path d="M306.886 200.109H328.766C328.909 200.109 329.051 200.137 329.183 200.192C329.315 200.247 329.435 200.327 329.536 200.428C329.638 200.53 329.718 200.65 329.773 200.782C329.828 200.914 329.856 201.056 329.856 201.199V206.925H305.795V201.199C305.795 201.056 305.823 200.914 305.878 200.782C305.933 200.649 306.013 200.529 306.114 200.428C306.216 200.327 306.336 200.247 306.468 200.192C306.601 200.137 306.743 200.109 306.886 200.109Z" fill="#4DA4FC"/>
<path d="M315.918 133.535C315.918 133.118 315.58 132.779 315.162 132.779C314.745 132.779 314.406 133.118 314.406 133.535V195.862C314.406 196.279 314.745 196.618 315.162 196.618C315.58 196.618 315.918 196.279 315.918 195.862V133.535Z" fill="#4DA4FC"/>
<path d="M321.246 133.535C321.246 133.118 320.907 132.779 320.49 132.779C320.072 132.779 319.734 133.118 319.734 133.535V195.862C319.734 196.279 320.072 196.618 320.49 196.618C320.907 196.618 321.246 196.279 321.246 195.862V133.535Z" fill="#4DA4FC"/>
<path d="M352.63 133.535C352.63 133.118 352.292 132.779 351.874 132.779C351.457 132.779 351.118 133.118 351.118 133.535V195.862C351.118 196.279 351.457 196.618 351.874 196.618C352.292 196.618 352.63 196.279 352.63 195.862V133.535Z" fill="#4DA4FC"/>
<path d="M357.958 133.535C357.958 133.118 357.619 132.779 357.202 132.779C356.784 132.779 356.446 133.118 356.446 133.535V195.862C356.446 196.279 356.784 196.618 357.202 196.618C357.619 196.618 357.958 196.279 357.958 195.862V133.535Z" fill="#4DA4FC"/>
<path d="M373.132 116.261V121.791C373.132 121.939 373.103 122.085 373.047 122.221C372.99 122.357 372.907 122.481 372.803 122.585C372.698 122.689 372.574 122.771 372.438 122.828C372.302 122.884 372.156 122.913 372.008 122.912H204.636C204.339 122.912 204.054 122.794 203.843 122.584C203.633 122.373 203.515 122.088 203.515 121.79V116.498C203.514 116.237 203.578 115.98 203.699 115.75C203.821 115.519 203.997 115.322 204.212 115.174L287.595 58.4271C287.861 58.2464 288.175 58.1498 288.497 58.1498C288.818 58.1498 289.132 58.2464 289.398 58.4271L372.431 114.937C372.647 115.084 372.824 115.282 372.946 115.512C373.068 115.743 373.132 116 373.132 116.261Z" fill="#4DA4FC"/>
<path d="M350.785 113.58H226.211C226.119 113.581 226.029 113.551 225.954 113.496C225.88 113.442 225.826 113.364 225.798 113.276C225.771 113.188 225.773 113.094 225.804 113.007C225.834 112.919 225.892 112.845 225.968 112.793L288.254 70.4014C288.326 70.3526 288.41 70.3264 288.497 70.3264C288.583 70.3264 288.668 70.3526 288.739 70.4014L351.028 112.793C351.104 112.845 351.162 112.919 351.192 113.007C351.223 113.094 351.225 113.188 351.198 113.276C351.17 113.364 351.116 113.442 351.041 113.496C350.967 113.551 350.877 113.581 350.785 113.58Z" fill="#F3F5FD"/>
<path d="M313.204 206.51L319.783 255.965L354.855 233.974L313.204 206.51Z" fill="#4DA4FC"/>
<path d="M333.475 229.347L324.932 234.704L341.163 260.59L349.706 255.233L333.475 229.347Z" fill="#4DA4FC"/>
</svg>
