<svg width="74" height="74" viewBox="0 0 74 74" fill="none" xmlns="http://www.w3.org/2000/svg">
<circle cx="37" cy="37" r="37" fill="#818CFA"/>
<path fill-rule="evenodd" clip-rule="evenodd" d="M20.8405 20.8404C24.3151 17.3658 29.6876 16.1668 37.0003 16.1668C44.313 16.1668 49.6857 17.3658 53.1601 20.8404C56.6347 24.3149 57.8336 29.6875 57.8336 37.0002C57.8336 44.3129 56.6347 49.6854 53.1601 53.16C49.6857 56.6346 44.313 57.8335 37.0003 57.8335C29.6876 57.8335 24.3151 56.6346 20.8405 53.16C17.366 49.6854 16.167 44.3129 16.167 37.0002C16.167 29.6875 17.366 24.3149 20.8405 20.8404ZM23.0502 23.0501C20.5024 25.5979 19.292 29.8608 19.292 37.0002C19.292 44.1396 20.5024 48.4025 23.0502 50.9502C25.5981 53.4981 29.861 54.7085 37.0003 54.7085C44.1397 54.7085 48.4026 53.4981 50.9505 50.9502C53.4982 48.4025 54.7086 44.1396 54.7086 37.0002C54.7086 29.8608 53.4982 25.5979 50.9505 23.0501C48.4026 20.5022 44.1397 19.2918 37.0003 19.2918C29.861 19.2918 25.5981 20.5022 23.0502 23.0501Z" fill="white"/>
<path fill-rule="evenodd" clip-rule="evenodd" d="M36.9985 26.3419C37.8615 26.3419 38.561 27.0414 38.561 27.9044V36.1025L44.8635 39.8625C45.6046 40.3046 45.8471 41.2638 45.405 42.0048C44.9627 42.746 44.0035 42.9883 43.2625 42.5463L36.1979 38.3317C35.7254 38.0498 35.436 37.54 35.436 36.9898V27.9044C35.436 27.0414 36.1356 26.3419 36.9985 26.3419Z" fill="white"/>
</svg>
