<svg width="74" height="74" viewBox="0 0 74 74" fill="none" xmlns="http://www.w3.org/2000/svg">
<circle cx="37" cy="37" r="37" fill="#818CFA"/>
<path fill-rule="evenodd" clip-rule="evenodd" d="M29.3457 35.6524C29.3457 31.6878 32.5585 28.4742 36.5216 28.4742C40.4866 28.4742 43.7 31.6873 43.7 35.6524C43.7 39.6157 40.4862 42.8283 36.5216 42.8283C32.5589 42.8283 29.3457 39.6152 29.3457 35.6524ZM36.5216 31.7867C34.3888 31.7867 32.6583 33.5163 32.6583 35.6524C32.6583 37.7856 34.3883 39.5158 36.5216 39.5158C38.6577 39.5158 40.3875 37.7852 40.3875 35.6524C40.3875 33.5168 38.6573 31.7867 36.5216 31.7867Z" fill="white"/>
<path fill-rule="evenodd" clip-rule="evenodd" d="M36.4989 20.2812C28.2864 20.2812 21.5938 27.0328 21.5938 35.4052C21.5938 40.8687 23.9517 46.2616 27.122 50.3073C28.7009 52.3224 30.4446 53.9546 32.1266 55.0702C33.8341 56.2024 35.3486 56.7188 36.4989 56.7188C37.6499 56.7188 39.165 56.2024 40.8725 55.0702C42.555 53.9546 44.2987 52.3224 45.8779 50.3073C49.0484 46.2616 51.4062 40.8687 51.4062 35.4052C51.4062 27.0331 44.7117 20.2812 36.4989 20.2812ZM18.2812 35.4052C18.2812 25.2448 26.4158 16.9688 36.4989 16.9688C46.5817 16.9688 54.7188 25.2445 54.7188 35.4052C54.7188 41.7787 51.9959 47.8706 48.4851 52.3504C46.7235 54.5983 44.7265 56.4891 42.7032 57.8309C40.7049 59.1559 38.5489 60.0312 36.4989 60.0312C34.4493 60.0312 32.2938 59.1559 30.2959 57.8309C28.2728 56.4891 26.276 54.5983 24.5146 52.3504C21.0041 47.8706 18.2812 41.7787 18.2812 35.4052Z" fill="white"/>
</svg>
