<svg width="74" height="74" viewBox="0 0 74 74" fill="none" xmlns="http://www.w3.org/2000/svg">
<circle cx="37" cy="37" r="37" fill="#818CFA"/>
<path fill-rule="evenodd" clip-rule="evenodd" d="M43.6445 37.8604C43.6445 36.7098 44.5772 35.7771 45.7279 35.7771H45.7466C46.8972 35.7771 47.8299 36.7098 47.8299 37.8604C47.8299 39.0111 46.8972 39.9438 45.7466 39.9438H45.7279C44.5772 39.9438 43.6445 39.0111 43.6445 37.8604Z" fill="white"/>
<path fill-rule="evenodd" clip-rule="evenodd" d="M35.2925 37.8604C35.2925 36.7098 36.2252 35.7771 37.3758 35.7771H37.3946C38.5452 35.7771 39.4779 36.7098 39.4779 37.8604C39.4779 39.0111 38.5452 39.9438 37.3946 39.9438H37.3758C36.2252 39.9438 35.2925 39.0111 35.2925 37.8604Z" fill="white"/>
<path fill-rule="evenodd" clip-rule="evenodd" d="M26.9404 37.8604C26.9404 36.7098 27.8732 35.7771 29.0238 35.7771H29.0425C30.1931 35.7771 31.1258 36.7098 31.1258 37.8604C31.1258 39.0111 30.1931 39.9438 29.0425 39.9438H29.0238C27.8732 39.9438 26.9404 39.0111 26.9404 37.8604Z" fill="white"/>
<path fill-rule="evenodd" clip-rule="evenodd" d="M51.1473 23.3694C43.6298 15.8491 31.4148 15.8491 23.8974 23.3694C18.0101 29.2556 16.7313 37.981 20.0356 45.1217C20.0466 45.1456 20.0571 45.1698 20.067 45.1944C20.259 45.6714 20.2547 46.2121 20.246 46.5179C20.2352 46.9019 20.1927 47.3442 20.1403 47.7942C20.0907 48.2196 20.0278 48.6883 19.9638 49.1648L19.9505 49.264C19.8812 49.7802 19.8106 50.3102 19.749 50.841C19.6241 51.9175 19.5457 52.9229 19.5806 53.7271C19.598 54.1279 19.6418 54.4248 19.6977 54.6283C19.7166 54.6969 19.7338 54.7442 19.7466 54.7746C19.777 54.7873 19.8242 54.8046 19.8928 54.8233C20.0964 54.8792 20.3934 54.9229 20.7942 54.9404C21.5984 54.9752 22.6037 54.8967 23.6801 54.7719C24.2109 54.7104 24.7408 54.6398 25.2571 54.5706L25.3555 54.5575C25.8321 54.4935 26.3011 54.4306 26.7266 54.381C27.1766 54.3287 27.6189 54.2862 28.0028 54.2756C28.3086 54.2669 28.8492 54.2627 29.3261 54.4548C29.3504 54.4646 29.3746 54.475 29.3984 54.486C36.5404 57.7889 45.2623 56.5121 51.1473 50.6242C58.6657 43.1046 58.6807 30.9017 51.1473 23.3694ZM53.3571 21.1599C44.6192 12.4188 30.425 12.4189 21.6872 21.1601C14.8871 27.9592 13.3845 38.01 17.1227 46.2665C17.1239 46.3029 17.1244 46.3562 17.1223 46.4296C17.1154 46.6731 17.086 47.0062 17.0363 47.4325C16.9901 47.8296 16.9306 48.2723 16.8654 48.7579L16.8533 48.8481C16.7841 49.3633 16.7101 49.9187 16.6449 50.4808C16.5162 51.5898 16.4123 52.799 16.4585 53.8625C16.4817 54.3958 16.5442 54.9462 16.6845 55.4565C16.8215 55.9552 17.064 56.531 17.5272 56.9944C17.9906 57.4573 18.567 57.7 19.0655 57.8369C19.5757 57.9769 20.1259 58.0394 20.659 58.0625C21.7224 58.1085 22.9312 58.0048 24.04 57.876C24.6019 57.811 25.1574 57.7371 25.6724 57.6679L25.7619 57.656C26.2477 57.5908 26.6906 57.5314 27.0878 57.4852C27.5141 57.4356 27.8471 57.4062 28.0906 57.3994C28.164 57.3973 28.2174 57.3977 28.254 57.399C36.5111 61.1354 46.5588 59.6352 53.3573 52.8335C62.0942 44.0956 62.1127 29.9144 53.3571 21.1599Z" fill="white"/>
</svg>
