<svg width="273" height="182" viewBox="0 0 273 182" fill="none" xmlns="http://www.w3.org/2000/svg">
<g clip-path="url(#clip0_264_2088)">
<path d="M222.599 148.535L222.086 148.427C222.193 147.92 222.292 147.404 222.381 146.893L222.897 146.982C222.807 147.499 222.707 148.022 222.599 148.535Z" fill="#292A2E"/>
<path d="M181.671 182L181.667 181.476C182.707 181.467 183.761 181.419 184.798 181.332L184.841 181.854C183.791 181.942 182.725 181.991 181.671 182ZM178.498 181.906C177.448 181.835 176.386 181.722 175.342 181.575L175.416 181.056C176.448 181.203 177.496 181.313 178.535 181.383L178.498 181.906ZM187.991 181.47L187.908 180.953C188.934 180.788 189.968 180.581 190.98 180.339L191.102 180.848C190.077 181.094 189.03 181.303 187.991 181.47ZM172.219 181.011C171.187 180.785 170.153 180.518 169.146 180.218L169.296 179.716C170.292 180.013 171.312 180.276 172.331 180.499L172.219 181.011ZM194.158 179.994L193.998 179.496C194.987 179.179 195.978 178.82 196.944 178.427L197.141 178.913C196.163 179.309 195.159 179.673 194.158 179.994ZM166.14 179.196C165.155 178.819 164.173 178.4 163.22 177.95L163.444 177.476C164.385 177.922 165.355 178.334 166.327 178.707L166.14 179.196ZM200.035 177.609L199.802 177.14C200.733 176.678 201.659 176.174 202.554 175.643L202.821 176.093C201.916 176.631 200.978 177.14 200.035 177.609H200.035ZM160.403 176.487C159.488 175.967 158.58 175.405 157.704 174.816L157.997 174.381C158.862 174.963 159.757 175.518 160.661 176.031L160.403 176.487ZM205.49 174.373L205.19 173.944C206.043 173.348 206.884 172.713 207.689 172.054L208.021 172.459C207.205 173.126 206.353 173.77 205.489 174.373H205.49ZM155.141 172.945C154.315 172.293 153.502 171.6 152.725 170.887L153.08 170.501C153.847 171.206 154.649 171.89 155.465 172.534L155.141 172.945ZM210.401 170.362L210.04 169.982C210.794 169.266 211.531 168.511 212.23 167.74L212.618 168.092C211.911 168.873 211.165 169.636 210.401 170.362ZM150.47 168.654C149.75 167.885 149.05 167.079 148.389 166.259L148.798 165.93C149.45 166.74 150.141 167.536 150.852 168.296L150.47 168.654ZM214.659 165.662L214.245 165.341C214.884 164.519 215.499 163.665 216.074 162.796L216.511 163.086C215.929 163.963 215.306 164.83 214.659 165.662L214.659 165.662ZM146.493 163.715C145.896 162.847 145.324 161.947 144.793 161.037L145.246 160.773C145.77 161.671 146.335 162.561 146.925 163.418L146.493 163.715ZM218.163 160.377L217.705 160.122C218.212 159.214 218.692 158.275 219.129 157.331L219.605 157.55C219.162 158.506 218.677 159.457 218.163 160.377ZM143.297 158.24C142.835 157.292 142.404 156.316 142.016 155.338L142.503 155.145C142.887 156.111 143.312 157.075 143.769 158.01L143.297 158.24ZM220.828 154.625L220.337 154.442C220.701 153.47 221.033 152.47 221.324 151.469L221.827 151.615C221.533 152.626 221.196 153.639 220.828 154.623V154.625Z" fill="#292A2E"/>
<path d="M140.949 152.326C140.792 151.826 140.644 151.315 140.506 150.807L141.012 150.67C141.148 151.17 141.295 151.675 141.449 152.169L140.949 152.326Z" fill="#292A2E"/>
<path d="M20.4403 106.48C19.9331 106.33 19.4252 106.163 18.9312 105.984L19.1102 105.491C19.5943 105.667 20.092 105.832 20.5892 105.978L20.4403 106.48Z" fill="#292A2E"/>
<path d="M16.0139 104.718C15.0686 104.237 14.154 103.697 13.2753 103.103L13.5691 102.669C14.43 103.251 15.326 103.78 16.2522 104.251L16.0139 104.718ZM10.7573 101.162C9.95923 100.464 9.20489 99.7173 8.49854 98.9264L8.88958 98.5775C9.58158 99.3524 10.3206 100.084 11.1025 100.768L10.7573 101.162ZM6.5315 96.4307C5.9277 95.5594 5.37767 94.6521 4.88448 93.7138L5.34839 93.4702C5.83174 94.3896 6.37074 95.2786 6.96239 96.1324L6.5315 96.4307ZM3.58133 90.8166C3.20655 89.8252 2.89302 88.8117 2.6425 87.7819L3.15202 87.6583C3.39735 88.6672 3.7045 89.6602 4.07172 90.6314L3.58133 90.8166ZM2.08371 84.6558C1.97077 83.6786 1.9138 82.6958 1.91309 81.7121V81.4834L2.43728 81.4878V81.7121C2.43765 82.6756 2.49322 83.6384 2.60371 84.5956L2.08371 84.6558ZM2.66032 78.3835L2.14085 78.3143C2.28139 77.2639 2.48604 76.223 2.75363 75.1974L3.26079 75.3284C2.99845 76.3336 2.79766 77.3539 2.65954 78.3835H2.66032ZM4.22662 72.3702L3.73885 72.1774C4.12882 71.1916 4.57899 70.2306 5.08682 69.2999L5.54706 69.5508C5.04946 70.4627 4.60848 71.4042 4.22662 72.3702ZM7.20482 66.9164L6.77918 66.6104C7.39868 65.7499 8.07075 64.9284 8.79156 64.1507L9.17579 64.5069C8.4698 65.2687 7.81156 66.0734 7.20482 66.9164ZM11.429 62.3588L11.0912 61.9581C11.9023 61.2753 12.7543 60.6425 13.6425 60.0633L13.9289 60.502C13.0586 61.0694 12.2238 61.6893 11.429 62.3583V62.3588ZM16.6366 58.9643L16.406 58.4928C17.3587 58.0266 18.3391 57.6189 19.3415 57.272L19.5129 57.767C18.5307 58.1071 17.5701 58.5067 16.6366 58.9638V58.9643Z" fill="#292A2E"/>
<path d="M22.5224 56.9295L22.4131 56.4172C22.9286 56.3074 23.4547 56.2123 23.9765 56.1343L24.0551 56.6526C23.5427 56.7289 23.0274 56.8218 22.5224 56.9295Z" fill="#292A2E"/>
<path d="M46.7725 114.518C46.7764 111.712 46.0781 108.95 44.741 106.482C43.404 104.015 41.4707 101.92 39.1172 100.39C36.7636 98.8598 34.0644 97.942 31.2653 97.7202C28.4662 97.4983 25.656 97.9795 23.0905 99.12C20.525 100.26 18.2856 102.024 16.5761 104.25C14.8666 106.476 13.7412 109.094 13.3025 111.866C12.8638 114.637 13.1256 117.475 14.0641 120.119C15.0026 122.764 16.588 125.132 18.676 127.008C20.5504 128.666 22.0539 130.701 23.0881 132.979C24.1223 135.257 24.6641 137.728 24.678 140.23V140.248L35.1315 140.26V140.242C35.1489 137.743 35.694 135.276 36.7313 133.002C37.7686 130.728 39.2746 128.698 41.1508 127.046C42.9189 125.472 44.3338 123.542 45.3027 121.383C46.2716 119.224 46.7725 116.885 46.7725 114.518Z" fill="#367CFF"/>
<path opacity="0.8" d="M46.7725 114.518C46.7764 111.712 46.0781 108.95 44.741 106.482C43.404 104.015 41.4707 101.92 39.1172 100.39C36.7636 98.8598 34.0644 97.942 31.2653 97.7202C28.4662 97.4983 25.656 97.9795 23.0905 99.12C20.525 100.26 18.2856 102.024 16.5761 104.25C14.8666 106.476 13.7412 109.094 13.3025 111.866C12.8638 114.637 13.1256 117.475 14.0641 120.119C15.0026 122.764 16.588 125.132 18.676 127.008C20.5504 128.666 22.0539 130.701 23.0881 132.979C24.1223 135.257 24.6641 137.728 24.678 140.23V140.248L35.1315 140.26V140.242C35.1489 137.743 35.694 135.276 36.7313 133.002C37.7686 130.728 39.2746 128.698 41.1508 127.046C42.9189 125.472 44.3338 123.542 45.3027 121.383C46.2716 119.224 46.7725 116.885 46.7725 114.518Z" fill="white"/>
<path d="M27.8362 140.297L23.7391 116.893C23.7035 116.687 23.7442 116.476 23.8536 116.298C23.9631 116.121 24.1336 115.989 24.3333 115.929C24.7345 115.787 25.161 115.733 25.5849 115.768C26.0087 115.803 26.4204 115.927 26.7928 116.133C26.9249 116.213 27.0494 116.305 27.1647 116.408C27.5518 116.063 28.0112 115.808 28.5093 115.662C30.0321 115.192 30.9764 115.792 31.5001 116.377C31.6121 116.503 31.7143 116.638 31.806 116.779C32.5207 115.993 33.3405 115.586 34.0917 115.671C34.2752 115.677 34.4555 115.72 34.6219 115.797C34.7883 115.875 34.9373 115.985 35.0599 116.122C35.1876 116.282 35.2481 116.485 35.2287 116.689L31.8838 140.293L31.3646 140.22L34.7097 116.616C34.7118 116.587 34.7171 116.269 34.0327 116.191C33.4097 116.12 32.7015 116.517 32.0738 117.268C32.5456 118.293 32.5946 119.516 32.2788 120.236C32.2204 120.414 32.11 120.571 31.9618 120.685C31.8137 120.8 31.6345 120.868 31.4474 120.88C31.273 120.893 31.0985 120.857 30.9443 120.774C30.7902 120.692 30.6629 120.567 30.5775 120.414C30.1817 119.685 30.6758 118.353 31.3022 117.425C31.3517 117.351 31.402 117.28 31.4532 117.211C31.3558 117.038 31.2405 116.875 31.109 116.726C30.4963 116.041 29.6735 115.851 28.6642 116.163C28.2409 116.283 27.85 116.497 27.5204 116.788C27.9697 117.419 28.2634 118.147 28.3775 118.912C28.5764 119.977 28.2545 120.425 28.0449 120.598C27.9397 120.686 27.8124 120.744 27.6767 120.765C27.5409 120.787 27.4019 120.771 27.2746 120.72C26.6717 120.481 26.2144 119.452 26.2545 118.428C26.2687 117.839 26.4639 117.269 26.8135 116.795C26.7228 116.714 26.625 116.642 26.5213 116.579C26.2114 116.413 25.8701 116.314 25.5195 116.288C25.1689 116.262 24.8168 116.31 24.4858 116.429C24.4085 116.452 24.3426 116.503 24.3003 116.572C24.258 116.641 24.2423 116.723 24.2562 116.803L28.3533 140.206L27.8362 140.297ZM31.7064 117.762C31.0972 118.685 30.8042 119.732 31.0385 120.164C31.0774 120.233 31.1368 120.288 31.2085 120.323C31.2801 120.357 31.3607 120.368 31.439 120.355C31.5826 120.353 31.7037 120.241 31.7986 120.025C32.0321 119.491 32.0023 118.577 31.7064 117.762ZM27.1697 117.196C26.926 117.569 26.79 118.003 26.7766 118.449C26.7404 119.37 27.154 120.109 27.4664 120.233C27.5067 120.25 27.5508 120.255 27.5938 120.248C27.6368 120.241 27.6769 120.222 27.7099 120.193C27.7854 120.131 28.0197 119.862 27.8603 119.009C27.7631 118.362 27.5276 117.743 27.1697 117.196V117.196Z" fill="white"/>
<path d="M24.6782 140.248L35.132 140.26L35.1313 140.87C35.1297 142.256 34.5775 143.584 33.5961 144.562C32.6148 145.541 31.2847 146.089 29.8985 146.088C29.2121 146.087 28.5326 145.951 27.8987 145.688C27.2648 145.425 26.689 145.039 26.2042 144.554C25.7194 144.068 25.3351 143.492 25.0731 142.858C24.8111 142.224 24.6767 141.544 24.6775 140.858L24.6782 140.248Z" fill="#367CFF"/>
<path opacity="0.5" d="M24.6782 140.248L35.132 140.26L35.1313 140.87C35.1297 142.256 34.5775 143.584 33.5961 144.562C32.6148 145.541 31.2847 146.089 29.8985 146.088C29.2121 146.087 28.5326 145.951 27.8987 145.688C27.2648 145.425 26.689 145.039 26.2042 144.554C25.7194 144.068 25.3351 143.492 25.0731 142.858C24.8111 142.224 24.6767 141.544 24.6775 140.858L24.6782 140.248Z" fill="white"/>
<path d="M29.3285 15.7778L28.8599 15.5434C29.0958 15.0719 29.3508 14.6004 29.6155 14.146L30.0687 14.4095C29.8094 14.8545 29.5602 15.315 29.3285 15.7778Z" fill="#292A2E"/>
<path d="M74.9626 22.7957C74.8048 21.8164 74.5874 20.8476 74.3118 19.8946L74.8153 19.749C75.0968 20.7224 75.3189 21.7121 75.4803 22.7124L74.9626 22.7957ZM73.3114 17.0941C72.9213 16.182 72.4761 15.2944 71.9781 14.4364L72.4313 14.1744C72.9404 15.0509 73.3955 15.9577 73.7942 16.8896L73.3114 17.0941ZM70.3298 11.9604C69.73 11.1706 69.0823 10.4183 68.3903 9.7078L68.7659 9.3411C69.4733 10.0672 70.1353 10.8361 70.7484 11.6434L70.3298 11.9604ZM31.7195 11.9342L31.3022 11.6172C31.9162 10.8105 32.5792 10.0422 33.2874 9.31674L33.6624 9.68344C32.9695 10.3934 32.321 11.1453 31.7206 11.935L31.7195 11.9342ZM66.1853 7.71008C65.41 7.09044 64.5974 6.51898 63.752 5.99892L64.0269 5.55364C64.8905 6.08506 65.7207 6.66885 66.5129 7.30174L66.1853 7.71008ZM35.8685 7.68808L35.5414 7.27869C36.3339 6.6465 37.1646 6.06357 38.0287 5.53321L38.3031 5.97849C37.4576 6.49828 36.6449 7.06948 35.8695 7.68887L35.8685 7.68808ZM61.1286 4.59735C60.2268 4.18303 59.3006 3.82396 58.3551 3.52214L58.5142 3.02317C59.4802 3.33139 60.4264 3.69816 61.3477 4.12143L61.1286 4.59735ZM40.9301 4.58347L40.7126 4.10703C41.6351 3.68642 42.5823 3.32228 43.549 3.01663L43.7063 3.51612C42.7601 3.81537 41.833 4.17181 40.9301 4.58347ZM55.472 2.79582C54.4965 2.6132 53.5106 2.49074 52.52 2.42913L52.5525 1.90527C53.5646 1.96791 54.5718 2.09283 55.5685 2.2793L55.472 2.79582ZM46.593 2.79425L46.4971 2.27852C47.4939 2.09326 48.5011 1.96896 49.513 1.90632L49.5452 2.43017C48.5547 2.49117 47.5688 2.61249 46.593 2.79347V2.79425Z" fill="#292A2E"/>
<path d="M75.7851 27.3344L75.2609 27.3197C75.2754 26.8048 75.2733 26.2817 75.2544 25.7652L75.7786 25.7461C75.7982 26.2739 75.7998 26.8085 75.7851 27.3344Z" fill="#292A2E"/>
<path d="M21.5064 57.9769C33.384 57.9769 43.0127 48.3545 43.0127 36.4846C43.0127 24.6146 33.384 14.9922 21.5064 14.9922C9.62873 14.9922 0 24.6146 0 36.4846C0 48.3545 9.62873 57.9769 21.5064 57.9769Z" fill="#367CFF"/>
<path opacity="0.8" d="M21.5064 57.9769C33.384 57.9769 43.0127 48.3545 43.0127 36.4846C43.0127 24.6146 33.384 14.9922 21.5064 14.9922C9.62873 14.9922 0 24.6146 0 36.4846C0 48.3545 9.62873 57.9769 21.5064 57.9769Z" fill="white"/>
<path d="M26.1434 36.7743C25.4237 38.3339 24.2315 39.6278 22.7355 40.473C21.2396 41.3183 19.5155 41.6721 17.8073 41.4844C16.099 41.2967 14.4931 40.5771 13.2166 39.4272C11.9401 38.2773 11.0577 36.7555 10.6942 35.0769C10.3307 33.3984 10.5045 31.6481 11.191 30.0737C11.8775 28.4992 13.042 27.1804 14.5197 26.3037C15.9975 25.4269 17.7136 25.0367 19.4255 25.1882C21.1373 25.3397 22.7581 26.0252 24.0587 27.1478C25.4021 28.3106 26.3316 29.8777 26.7075 31.6136C27.0835 33.3495 26.8855 35.1605 26.1434 36.7743ZM12.9243 30.694C12.248 32.1573 12.152 33.8225 12.6557 35.3537C13.1593 36.885 14.2251 38.1685 15.6382 38.9456C17.0514 39.7226 18.7067 39.9353 20.2706 39.5409C21.8345 39.1465 23.1906 38.1742 24.0655 36.8201C24.9405 35.466 25.2692 33.8308 24.9854 32.2441C24.7016 30.6574 23.8265 29.2371 22.5363 28.2698C21.2462 27.3024 19.6371 26.8597 18.0333 27.0311C16.4295 27.2024 14.9504 27.975 13.8941 29.1931C13.502 29.6455 13.1756 30.1507 12.9243 30.694Z" fill="white"/>
<path d="M32.419 47.2792C32.356 47.4153 32.2607 47.5339 32.1413 47.6248C32.022 47.7156 31.8822 47.7758 31.7341 47.8003C31.5861 47.8247 31.4344 47.8126 31.2921 47.765C31.1498 47.7173 31.0214 47.6356 30.918 47.527L23.1429 39.3473C23.0598 39.2599 22.9947 39.1569 22.9514 39.0444C22.9081 38.9318 22.8873 38.8118 22.8904 38.6913C22.8935 38.5707 22.9204 38.4519 22.9694 38.3417C23.0184 38.2315 23.0887 38.132 23.1762 38.049C23.2637 37.9659 23.3667 37.9009 23.4793 37.8576C23.5919 37.8143 23.712 37.7936 23.8327 37.7967C23.9533 37.7998 24.0722 37.8266 24.1824 37.8756C24.2927 37.9246 24.3923 37.9948 24.4754 38.0822L32.25 46.2619C32.3767 46.3951 32.4606 46.5633 32.4908 46.7446C32.5209 46.926 32.4959 47.1122 32.419 47.2792Z" fill="white"/>
<path d="M149.557 36.9411L149.059 36.7806C149.219 36.2829 149.389 35.7792 149.564 35.2842L150.059 35.4591C149.884 35.9495 149.715 36.4479 149.557 36.9411Z" fill="#292A2E"/>
<path d="M250.874 41.9221C250.656 40.9207 250.406 39.9134 250.13 38.9277L250.635 38.7866C250.913 39.7819 251.166 40.7997 251.386 41.8108L250.874 41.9221ZM249.212 35.9819C248.879 35.0127 248.512 34.042 248.123 33.0944L248.607 32.8953C249 33.8524 249.371 34.8336 249.708 35.8114L249.212 35.9819ZM151.173 32.5805L150.69 32.377C151.092 31.4241 151.528 30.4704 151.985 29.5421L152.455 29.7734C152.002 30.6925 151.571 31.637 151.173 32.5805ZM246.865 30.2755C246.42 29.352 245.943 28.43 245.446 27.535L245.904 27.2807C246.406 28.1843 246.888 29.1157 247.338 30.0484L246.865 30.2755ZM153.899 27.0468L153.443 26.7882C153.955 25.8883 154.5 24.9922 155.063 24.125L155.502 24.4115C154.945 25.2688 154.406 26.156 153.899 27.0468ZM243.87 24.883C243.319 24.0186 242.739 23.1574 242.14 22.3261L242.565 22.0201C243.17 22.8583 243.758 23.7284 244.312 24.6022L243.87 24.883ZM157.261 21.8708L156.839 21.5599C157.454 20.7265 158.101 19.9006 158.764 19.1052L159.167 19.4404C158.511 20.228 157.87 21.0455 157.261 21.8708ZM240.264 19.8737C239.618 19.079 238.939 18.2929 238.246 17.537L238.633 17.1831C239.332 17.9467 240.018 18.7408 240.67 19.5431L240.264 19.8737ZM161.213 17.1274L160.831 16.7688C161.539 16.0142 162.28 15.2706 163.033 14.5589L163.393 14.9392C162.648 15.6441 161.914 16.3801 161.213 17.1274ZM236.094 15.3227C235.358 14.6084 234.591 13.9083 233.814 13.2393L234.157 12.8425C234.94 13.5175 235.714 14.2255 236.458 14.9468L236.094 15.3227ZM165.698 12.8836L165.36 12.4826C166.152 11.8173 166.974 11.1659 167.805 10.5467L168.12 10.9658C167.295 11.5798 166.48 12.2246 165.698 12.8836ZM231.418 11.2943C230.603 10.6724 229.759 10.0669 228.908 9.4943L229.201 9.05977C230.06 9.6381 230.913 10.25 231.736 10.8778L231.418 11.2943ZM170.646 9.19518L170.358 8.75777C171.223 8.18913 172.116 7.63856 173.012 7.12125L173.275 7.57491C172.386 8.08697 171.502 8.6323 170.646 9.19518ZM226.294 7.84574C225.413 7.32555 224.504 6.82423 223.591 6.3559L223.831 5.88967C224.752 6.36298 225.671 6.86954 226.561 7.3947L226.294 7.84574ZM175.992 6.11074L175.757 5.64242C176.682 5.17854 177.633 4.73589 178.583 4.32676L178.791 4.80792C177.85 5.21233 176.909 5.65132 175.992 6.11074ZM220.806 5.02899C219.869 4.61593 218.906 4.22461 217.946 3.86603L218.129 3.37518C219.099 3.73743 220.071 4.13241 221.018 4.54966L220.806 5.02899ZM181.662 3.67063L181.483 3.17821C182.456 2.82514 183.452 2.49721 184.445 2.20123L184.595 2.70334C183.612 2.99591 182.625 3.32123 181.662 3.67063ZM215.024 2.8694C214.042 2.56635 213.041 2.28897 212.048 2.04486L212.174 1.53594C213.176 1.78267 214.187 2.06293 215.179 2.36886L215.024 2.8694ZM187.576 1.90997L187.456 1.4C188.465 1.16426 189.493 0.954721 190.511 0.776873L190.6 1.29313C189.592 1.46679 188.575 1.67633 187.576 1.90997ZM209.028 1.39476C208.019 1.20827 206.992 1.04954 205.977 0.92329L206.041 0.403628C207.067 0.531187 208.104 0.691747 209.123 0.87981L209.028 1.39476ZM193.655 0.854927L193.596 0.33448C194.624 0.217923 195.669 0.130701 196.702 0.0751728L196.73 0.599025C195.708 0.653244 194.673 0.73968 193.655 0.854927ZM202.902 0.63229C201.88 0.566023 200.842 0.529353 199.817 0.523853L199.819 0C200.856 0.00550045 201.904 0.0424321 202.936 0.109485L202.902 0.63229Z" fill="#292A2E"/>
<path d="M251.66 46.5195C251.596 46.0043 251.522 45.4831 251.442 44.971L251.961 44.8906C252.041 45.4077 252.115 45.9339 252.18 46.4543L251.66 46.5195Z" fill="#292A2E"/>
<path d="M260.875 64.2936C260.495 63.9413 260.102 63.5924 259.708 63.2561L260.049 62.8574C260.449 63.1979 260.847 63.5523 261.232 63.9096L260.875 64.2936Z" fill="#292A2E"/>
<path d="M237.089 127.735L237.075 127.211C238.095 127.185 239.126 127.114 240.139 127.002L240.197 127.522C239.169 127.636 238.123 127.708 237.089 127.735ZM233.973 127.687C232.939 127.627 231.896 127.523 230.873 127.376L230.947 126.858C231.956 127.002 232.984 127.105 234.004 127.164L233.973 127.687ZM243.278 127.05L243.176 126.536C244.178 126.338 245.182 126.096 246.162 125.816L246.307 126.32C245.311 126.604 244.292 126.851 243.277 127.05H243.278ZM249.263 125.337L249.077 124.848C250.032 124.485 250.981 124.077 251.9 123.636L252.127 124.107C251.194 124.556 250.231 124.969 249.262 125.337H249.263ZM254.876 122.639L254.61 122.188C255.489 121.669 256.356 121.107 257.186 120.516L257.491 120.943C256.647 121.543 255.767 122.114 254.875 122.64L254.876 122.639ZM259.951 119.03L259.612 118.631C260.389 117.972 261.149 117.271 261.87 116.546L262.241 116.916C261.509 117.652 260.738 118.364 259.95 119.031L259.951 119.03ZM264.344 114.619L263.943 114.282C264.601 113.5 265.233 112.684 265.821 111.853L266.249 112.155C265.652 112.999 265.011 113.827 264.343 114.62L264.344 114.619ZM267.94 109.541L267.488 109.276C268.005 108.398 268.49 107.487 268.93 106.567L269.401 106.793C268.955 107.727 268.463 108.652 267.939 109.542L267.94 109.541ZM270.628 103.93L270.138 103.745C270.498 102.792 270.822 101.811 271.1 100.831L271.604 100.974C271.321 101.969 270.993 102.963 270.627 103.932L270.628 103.93ZM272.326 97.9446L271.812 97.8448C272.005 96.8453 272.159 95.8241 272.268 94.8096L272.789 94.8657C272.678 95.8956 272.522 96.9315 272.325 97.9457L272.326 97.9446ZM272.992 91.7584L272.467 91.7467C272.474 91.4695 272.477 91.1925 272.477 90.9156C272.477 90.172 272.454 89.4192 272.408 88.6777L272.932 88.6457C272.978 89.3977 273.002 90.1612 273.002 90.9156C273.001 91.197 272.997 91.4783 272.99 91.7595L272.992 91.7584ZM272.092 85.6246C271.944 84.6152 271.751 83.6005 271.52 82.6088L272.03 82.4894C272.266 83.4957 272.46 84.5248 272.61 85.5487L272.092 85.6246ZM270.694 79.6514C270.379 78.6823 270.019 77.7132 269.623 76.7747L270.106 76.5712C270.508 77.5243 270.873 78.5063 271.192 79.4898L270.694 79.6514ZM268.312 73.9983C267.838 73.0957 267.319 72.2025 266.77 71.3436L267.212 71.0615C267.769 71.9327 268.295 72.839 268.776 73.7549L268.312 73.9983ZM265.007 68.8294C264.387 68.0214 263.725 67.2288 263.037 66.4739L263.424 66.1211C264.122 66.8872 264.795 67.6911 265.423 68.5109L265.007 68.8294Z" fill="#292A2E"/>
<path d="M227.801 126.804C227.29 126.685 226.773 126.555 226.266 126.414L226.406 125.91C226.906 126.048 227.415 126.177 227.919 126.293L227.801 126.804Z" fill="#292A2E"/>
<path d="M254.352 68.1276C264.506 68.1276 272.738 59.9014 272.738 49.754C272.738 39.6065 264.506 31.3804 254.352 31.3804C244.198 31.3804 235.967 39.6065 235.967 49.754C235.967 59.9014 244.198 68.1276 254.352 68.1276Z" fill="white"/>
<path opacity="0.2" d="M254.352 68.1276C264.506 68.1276 272.738 59.9014 272.738 49.754C272.738 39.6065 264.506 31.3804 254.352 31.3804C244.198 31.3804 235.967 39.6065 235.967 49.754C235.967 59.9014 244.198 68.1276 254.352 68.1276Z" fill="#367CFF"/>
<path d="M254.352 63.8046C262.117 63.8046 268.412 57.514 268.412 49.7541C268.412 41.9942 262.117 35.7036 254.352 35.7036C246.587 35.7036 240.292 41.9942 240.292 49.7541C240.292 57.514 246.587 63.8046 254.352 63.8046Z" fill="white"/>
<path opacity="0.2" d="M254.352 59.4812C259.728 59.4812 264.086 55.1262 264.086 49.754C264.086 44.3819 259.728 40.0269 254.352 40.0269C248.976 40.0269 244.619 44.3819 244.619 49.754C244.619 55.1262 248.976 59.4812 254.352 59.4812Z" fill="#367CFF"/>
<path d="M254.352 55.1582C257.339 55.1582 259.76 52.7387 259.76 49.7542C259.76 46.7696 257.339 44.3501 254.352 44.3501C251.366 44.3501 248.945 46.7696 248.945 49.7542C248.945 52.7387 251.366 55.1582 254.352 55.1582Z" fill="white"/>
<path opacity="0.2" d="M254.352 51.4625C255.297 51.4625 256.062 50.6976 256.062 49.7542C256.062 48.8107 255.297 48.0459 254.352 48.0459C253.408 48.0459 252.643 48.8107 252.643 49.7542C252.643 50.6976 253.408 51.4625 254.352 51.4625Z" fill="#367CFF"/>
<path d="M262.144 136.186H258.257C257.948 136.187 257.647 136.091 257.394 135.913C257.142 135.735 256.952 135.482 256.849 135.191C256.552 134.337 256.2 133.504 255.796 132.695C255.656 132.415 255.609 132.098 255.659 131.79C255.71 131.482 255.857 131.197 256.079 130.977L258.841 128.216C259.122 127.935 259.28 127.555 259.28 127.158C259.28 126.761 259.122 126.38 258.841 126.1L252.873 120.138C252.593 119.858 252.212 119.7 251.815 119.7C251.417 119.7 251.037 119.858 250.756 120.138L247.944 122.948C247.725 123.168 247.443 123.314 247.137 123.365C246.831 123.417 246.517 123.372 246.238 123.236C245.444 122.849 244.626 122.512 243.79 122.228C243.495 122.128 243.239 121.937 243.058 121.684C242.877 121.431 242.78 121.127 242.781 120.816V116.835C242.781 116.639 242.742 116.444 242.667 116.263C242.592 116.081 242.481 115.916 242.343 115.777C242.204 115.638 242.039 115.528 241.857 115.453C241.675 115.378 241.481 115.339 241.284 115.339H232.847C232.651 115.339 232.456 115.378 232.274 115.453C232.093 115.528 231.928 115.638 231.789 115.777C231.65 115.916 231.539 116.081 231.464 116.262C231.389 116.444 231.35 116.639 231.35 116.835V120.816C231.351 121.127 231.254 121.431 231.073 121.684C230.892 121.937 230.636 122.128 230.341 122.228C229.505 122.512 228.687 122.849 227.893 123.236C227.614 123.372 227.3 123.417 226.994 123.365C226.688 123.314 226.406 123.168 226.187 122.948L223.375 120.138C223.094 119.857 222.713 119.7 222.316 119.7C221.919 119.7 221.538 119.857 221.257 120.138L215.289 126.099C215.008 126.38 214.851 126.761 214.851 127.157C214.851 127.554 215.008 127.935 215.289 128.216L218.051 130.976C218.273 131.197 218.42 131.481 218.471 131.79C218.522 132.098 218.474 132.415 218.335 132.695C217.93 133.503 217.579 134.337 217.284 135.191C217.181 135.482 216.989 135.734 216.737 135.912C216.484 136.091 216.183 136.186 215.873 136.186H211.987C211.79 136.186 211.595 136.225 211.414 136.3C211.232 136.375 211.067 136.485 210.928 136.624C210.789 136.763 210.679 136.928 210.604 137.109C210.529 137.291 210.49 137.485 210.49 137.682V146.116C210.49 146.312 210.529 146.507 210.604 146.688C210.679 146.87 210.789 147.034 210.928 147.173C211.067 147.312 211.232 147.422 211.414 147.498C211.595 147.573 211.79 147.611 211.987 147.611H215.771C216.086 147.611 216.393 147.71 216.648 147.895C216.903 148.079 217.093 148.339 217.192 148.638C217.484 149.515 217.833 150.371 218.238 151.202C218.375 151.482 218.421 151.798 218.371 152.105C218.32 152.413 218.174 152.697 217.954 152.918L215.289 155.582C215.15 155.72 215.04 155.885 214.965 156.066C214.889 156.248 214.85 156.442 214.85 156.639C214.85 156.835 214.889 157.029 214.965 157.211C215.04 157.392 215.15 157.557 215.289 157.695L221.257 163.66C221.538 163.94 221.919 164.098 222.316 164.098C222.713 164.098 223.094 163.94 223.375 163.66L225.988 161.048C226.211 160.826 226.498 160.68 226.808 160.63C227.119 160.58 227.437 160.629 227.718 160.77C228.563 161.193 229.436 161.557 230.331 161.86C230.628 161.96 230.886 162.151 231.068 162.405C231.251 162.659 231.35 162.964 231.351 163.277V166.96C231.35 167.156 231.389 167.351 231.464 167.533C231.539 167.715 231.649 167.88 231.788 168.019C231.927 168.158 232.092 168.269 232.274 168.344C232.456 168.419 232.651 168.458 232.847 168.458H241.284C241.481 168.458 241.676 168.419 241.858 168.344C242.039 168.268 242.204 168.158 242.343 168.019C242.482 167.88 242.592 167.715 242.667 167.533C242.743 167.351 242.781 167.156 242.781 166.96V163.277C242.781 162.964 242.88 162.659 243.063 162.405C243.246 162.151 243.503 161.96 243.8 161.86C244.695 161.557 245.568 161.193 246.413 160.77C246.694 160.629 247.013 160.58 247.323 160.63C247.633 160.68 247.92 160.826 248.143 161.048L250.756 163.66C251.037 163.94 251.418 164.098 251.815 164.098C252.212 164.098 252.593 163.94 252.874 163.66L258.842 157.695C258.981 157.557 259.091 157.392 259.167 157.211C259.242 157.029 259.281 156.835 259.281 156.639C259.281 156.442 259.242 156.248 259.167 156.066C259.091 155.885 258.981 155.72 258.842 155.582L256.176 152.918C255.956 152.697 255.811 152.413 255.76 152.105C255.71 151.798 255.756 151.482 255.893 151.202C256.298 150.371 256.647 149.515 256.939 148.638C257.037 148.339 257.228 148.079 257.483 147.895C257.738 147.71 258.045 147.611 258.36 147.611H262.144C262.341 147.611 262.536 147.573 262.717 147.498C262.899 147.423 263.064 147.312 263.203 147.173C263.342 147.035 263.452 146.87 263.527 146.688C263.602 146.507 263.641 146.312 263.641 146.116V137.682C263.641 137.485 263.602 137.291 263.527 137.109C263.452 136.928 263.342 136.763 263.203 136.624C263.063 136.485 262.898 136.375 262.717 136.3C262.535 136.225 262.34 136.186 262.144 136.186ZM237.066 154.361C234.6 154.362 232.188 153.631 230.137 152.261C228.086 150.892 226.487 148.945 225.543 146.668C224.599 144.39 224.352 141.884 224.833 139.466C225.314 137.049 226.502 134.828 228.246 133.084C229.99 131.341 232.213 130.154 234.632 129.673C237.052 129.192 239.559 129.439 241.838 130.383C244.117 131.326 246.065 132.924 247.436 134.974C248.806 137.024 249.537 139.434 249.537 141.899C249.537 145.204 248.223 148.374 245.884 150.711C243.546 153.048 240.374 154.361 237.067 154.361H237.066Z" fill="#367CFF"/>
<path opacity="0.8" d="M262.144 136.186H258.257C257.948 136.187 257.647 136.091 257.394 135.913C257.142 135.735 256.952 135.482 256.849 135.191C256.552 134.337 256.2 133.504 255.796 132.695C255.656 132.415 255.609 132.098 255.659 131.79C255.71 131.482 255.857 131.197 256.079 130.977L258.841 128.216C259.122 127.935 259.28 127.555 259.28 127.158C259.28 126.761 259.122 126.38 258.841 126.1L252.873 120.138C252.593 119.858 252.212 119.7 251.815 119.7C251.417 119.7 251.037 119.858 250.756 120.138L247.944 122.948C247.725 123.168 247.443 123.314 247.137 123.365C246.831 123.417 246.517 123.372 246.238 123.236C245.444 122.849 244.626 122.512 243.79 122.228C243.495 122.128 243.239 121.937 243.058 121.684C242.877 121.431 242.78 121.127 242.781 120.816V116.835C242.781 116.639 242.742 116.444 242.667 116.263C242.592 116.081 242.481 115.916 242.343 115.777C242.204 115.638 242.039 115.528 241.857 115.453C241.675 115.378 241.481 115.339 241.284 115.339H232.847C232.651 115.339 232.456 115.378 232.274 115.453C232.093 115.528 231.928 115.638 231.789 115.777C231.65 115.916 231.539 116.081 231.464 116.262C231.389 116.444 231.35 116.639 231.35 116.835V120.816C231.351 121.127 231.254 121.431 231.073 121.684C230.892 121.937 230.636 122.128 230.341 122.228C229.505 122.512 228.687 122.849 227.893 123.236C227.614 123.372 227.3 123.417 226.994 123.365C226.688 123.314 226.406 123.168 226.187 122.948L223.375 120.138C223.094 119.857 222.713 119.7 222.316 119.7C221.919 119.7 221.538 119.857 221.257 120.138L215.289 126.099C215.008 126.38 214.851 126.761 214.851 127.157C214.851 127.554 215.008 127.935 215.289 128.216L218.051 130.976C218.273 131.197 218.42 131.481 218.471 131.79C218.522 132.098 218.474 132.415 218.335 132.695C217.93 133.503 217.579 134.337 217.284 135.191C217.181 135.482 216.989 135.734 216.737 135.912C216.484 136.091 216.183 136.186 215.873 136.186H211.987C211.79 136.186 211.595 136.225 211.414 136.3C211.232 136.375 211.067 136.485 210.928 136.624C210.789 136.763 210.679 136.928 210.604 137.109C210.529 137.291 210.49 137.485 210.49 137.682V146.116C210.49 146.312 210.529 146.507 210.604 146.688C210.679 146.87 210.789 147.034 210.928 147.173C211.067 147.312 211.232 147.422 211.414 147.498C211.595 147.573 211.79 147.611 211.987 147.611H215.771C216.086 147.611 216.393 147.71 216.648 147.895C216.903 148.079 217.093 148.339 217.192 148.638C217.484 149.515 217.833 150.371 218.238 151.202C218.375 151.482 218.421 151.798 218.371 152.105C218.32 152.413 218.174 152.697 217.954 152.918L215.289 155.582C215.15 155.72 215.04 155.885 214.965 156.066C214.889 156.248 214.85 156.442 214.85 156.639C214.85 156.835 214.889 157.029 214.965 157.211C215.04 157.392 215.15 157.557 215.289 157.695L221.257 163.66C221.538 163.94 221.919 164.098 222.316 164.098C222.713 164.098 223.094 163.94 223.375 163.66L225.988 161.048C226.211 160.826 226.498 160.68 226.808 160.63C227.119 160.58 227.437 160.629 227.718 160.77C228.563 161.193 229.436 161.557 230.331 161.86C230.628 161.96 230.886 162.151 231.068 162.405C231.251 162.659 231.35 162.964 231.351 163.277V166.96C231.35 167.156 231.389 167.351 231.464 167.533C231.539 167.715 231.649 167.88 231.788 168.019C231.927 168.158 232.092 168.269 232.274 168.344C232.456 168.419 232.651 168.458 232.847 168.458H241.284C241.481 168.458 241.676 168.419 241.858 168.344C242.039 168.268 242.204 168.158 242.343 168.019C242.482 167.88 242.592 167.715 242.667 167.533C242.743 167.351 242.781 167.156 242.781 166.96V163.277C242.781 162.964 242.88 162.659 243.063 162.405C243.246 162.151 243.503 161.96 243.8 161.86C244.695 161.557 245.568 161.193 246.413 160.77C246.694 160.629 247.013 160.58 247.323 160.63C247.633 160.68 247.92 160.826 248.143 161.048L250.756 163.66C251.037 163.94 251.418 164.098 251.815 164.098C252.212 164.098 252.593 163.94 252.874 163.66L258.842 157.695C258.981 157.557 259.091 157.392 259.167 157.211C259.242 157.029 259.281 156.835 259.281 156.639C259.281 156.442 259.242 156.248 259.167 156.066C259.091 155.885 258.981 155.72 258.842 155.582L256.176 152.918C255.956 152.697 255.811 152.413 255.76 152.105C255.71 151.798 255.756 151.482 255.893 151.202C256.298 150.371 256.647 149.515 256.939 148.638C257.037 148.339 257.228 148.079 257.483 147.895C257.738 147.71 258.045 147.611 258.36 147.611H262.144C262.341 147.611 262.536 147.573 262.717 147.498C262.899 147.423 263.064 147.312 263.203 147.173C263.342 147.035 263.452 146.87 263.527 146.688C263.602 146.507 263.641 146.312 263.641 146.116V137.682C263.641 137.485 263.602 137.291 263.527 137.109C263.452 136.928 263.342 136.763 263.203 136.624C263.063 136.485 262.898 136.375 262.717 136.3C262.535 136.225 262.34 136.186 262.144 136.186ZM237.066 154.361C234.6 154.362 232.188 153.631 230.137 152.261C228.086 150.892 226.487 148.945 225.543 146.668C224.599 144.39 224.352 141.884 224.833 139.466C225.314 137.049 226.502 134.828 228.246 133.084C229.99 131.341 232.213 130.154 234.632 129.673C237.052 129.192 239.559 129.439 241.838 130.383C244.117 131.326 246.065 132.924 247.436 134.974C248.806 137.024 249.537 139.434 249.537 141.899C249.537 145.204 248.223 148.374 245.884 150.711C243.546 153.048 240.374 154.361 237.067 154.361H237.066Z" fill="white"/>
<path d="M225.46 15.2539H48.6261C44.2835 15.2539 40.7632 18.772 40.7632 23.1117V152.497C40.7632 156.836 44.2835 160.355 48.6261 160.355H225.46C229.802 160.355 233.323 156.836 233.323 152.497V23.1117C233.323 18.772 229.802 15.2539 225.46 15.2539Z" fill="white"/>
<path d="M225.46 160.617H48.626C46.4719 160.614 44.4067 159.758 42.8835 158.236C41.3603 156.713 40.5035 154.65 40.501 152.497V23.1119C40.5035 20.9592 41.3603 18.8954 42.8835 17.3732C44.4067 15.851 46.4719 14.9947 48.626 14.9922H225.46C227.614 14.9947 229.679 15.851 231.202 17.3732C232.726 18.8954 233.582 20.9592 233.585 23.1119V152.497C233.582 154.65 232.726 156.713 231.202 158.236C229.679 159.758 227.614 160.614 225.46 160.617ZM48.626 15.516C46.6108 15.5183 44.6788 16.3192 43.2538 17.7433C41.8289 19.1673 41.0274 21.098 41.0252 23.1119V152.497C41.0275 154.511 41.829 156.441 43.2539 157.865C44.6789 159.289 46.6108 160.09 48.626 160.093H225.46C227.475 160.09 229.407 159.289 230.832 157.865C232.257 156.441 233.058 154.511 233.061 152.497V23.1119C233.059 21.0981 232.257 19.1673 230.832 17.7433C229.407 16.3193 227.475 15.5183 225.46 15.516H48.626Z" fill="#292A2E"/>
<path d="M220.408 120.933H53.1433C50.8232 120.933 48.9424 122.812 48.9424 125.131V148.265C48.9424 150.584 50.8232 152.463 53.1433 152.463H220.408C222.728 152.463 224.608 150.584 224.608 148.265V125.131C224.608 122.812 222.728 120.933 220.408 120.933Z" fill="#367CFF"/>
<path d="M220.408 80.3271H53.1433C50.8232 80.3271 48.9424 82.2067 48.9424 84.5253V107.66C48.9424 109.978 50.8232 111.858 53.1433 111.858H220.408C222.728 111.858 224.608 109.978 224.608 107.66V84.5253C224.608 82.2067 222.728 80.3271 220.408 80.3271Z" fill="#367CFF"/>
<g opacity="0.9">
<path d="M220.408 120.933H53.1433C50.8232 120.933 48.9424 122.812 48.9424 125.131V148.265C48.9424 150.584 50.8232 152.463 53.1433 152.463H220.408C222.728 152.463 224.608 150.584 224.608 148.265V125.131C224.608 122.812 222.728 120.933 220.408 120.933Z" fill="white"/>
</g>
<g opacity="0.9">
<path d="M220.408 80.3271H53.1433C50.8232 80.3271 48.9424 82.2067 48.9424 84.5253V107.66C48.9424 109.978 50.8232 111.858 53.1433 111.858H220.408C222.728 111.858 224.608 109.978 224.608 107.66V84.5253C224.608 82.2067 222.728 80.3271 220.408 80.3271Z" fill="white"/>
</g>
<path d="M220.408 39.7212H53.1433C50.8232 39.7212 48.9424 41.6008 48.9424 43.9193V67.0537C48.9424 69.3723 50.8232 71.2519 53.1433 71.2519H220.408C222.728 71.2519 224.608 69.3723 224.608 67.0537V43.9193C224.608 41.6008 222.728 39.7212 220.408 39.7212Z" fill="#367CFF"/>
<path opacity="0.2" d="M220.408 39.7212H53.1433C50.8232 39.7212 48.9424 41.6008 48.9424 43.9193V67.0537C48.9424 69.3723 50.8232 71.2519 53.1433 71.2519H220.408C222.728 71.2519 224.608 69.3723 224.608 67.0537V43.9193C224.608 41.6008 222.728 39.7212 220.408 39.7212Z" fill="white"/>
<path d="M220.408 71.514H53.1434C51.96 71.5126 50.8256 71.0422 49.9889 70.2059C49.1523 69.3696 48.6818 68.2357 48.6807 67.0531V43.9198C48.6819 42.7373 49.1525 41.6036 49.9891 40.7674C50.8258 39.9313 51.9601 39.4609 53.1434 39.4595H220.408C221.591 39.4608 222.725 39.9311 223.562 40.7673C224.399 41.6035 224.87 42.7373 224.871 43.9198V67.0531C224.87 68.2358 224.399 69.3697 223.562 70.206C222.726 71.0423 221.591 71.5127 220.408 71.514ZM53.1434 39.9833C52.0991 39.9846 51.098 40.3997 50.3596 41.1377C49.6213 41.8757 49.206 42.8762 49.2049 43.9198V67.0531C49.206 68.0967 49.6213 69.0973 50.3596 69.8353C51.098 70.5732 52.0991 70.9884 53.1434 70.9896H220.408C221.452 70.9885 222.453 70.5733 223.192 69.8354C223.93 69.0974 224.346 68.0968 224.347 67.0531V43.9198C224.346 42.8762 223.93 41.8756 223.192 41.1376C222.453 40.3996 221.452 39.9845 220.408 39.9833H53.1434Z" fill="#292A2E"/>
<path d="M102.949 45.1997H57.6196C56.449 45.1997 55.5 46.1481 55.5 47.3179C55.5 48.4878 56.449 49.4361 57.6196 49.4361H102.949C104.12 49.4361 105.069 48.4878 105.069 47.3179C105.069 46.1481 104.12 45.1997 102.949 45.1997Z" fill="white"/>
<path d="M140.76 66.0615H55.4994C55.4299 66.0615 55.3632 66.0339 55.3141 65.9847C55.2649 65.9356 55.2373 65.869 55.2373 65.7995C55.2373 65.7301 55.2649 65.6634 55.3141 65.6143C55.3632 65.5652 55.4299 65.5376 55.4994 65.5376H140.76C140.829 65.5376 140.896 65.5652 140.945 65.6143C140.994 65.6634 141.022 65.7301 141.022 65.7995C141.022 65.869 140.994 65.9356 140.945 65.9847C140.896 66.0339 140.829 66.0615 140.76 66.0615Z" fill="white"/>
<path d="M217.292 60.495H55.4994C55.4299 60.495 55.3632 60.4674 55.3141 60.4183C55.2649 60.3692 55.2373 60.3026 55.2373 60.2331C55.2373 60.1637 55.2649 60.097 55.3141 60.0479C55.3632 59.9988 55.4299 59.9712 55.4994 59.9712H217.292C217.361 59.9712 217.428 59.9988 217.477 60.0479C217.526 60.097 217.554 60.1637 217.554 60.2331C217.554 60.3026 217.526 60.3692 217.477 60.4183C217.428 60.4674 217.361 60.495 217.292 60.495Z" fill="white"/>
<path d="M217.292 54.9281H55.4994C55.4299 54.9281 55.3632 54.9006 55.3141 54.8514C55.2649 54.8023 55.2373 54.7357 55.2373 54.6662C55.2373 54.5968 55.2649 54.5301 55.3141 54.481C55.3632 54.4319 55.4299 54.4043 55.4994 54.4043H217.292C217.361 54.4043 217.428 54.4319 217.477 54.481C217.526 54.5301 217.554 54.5968 217.554 54.6662C217.554 54.7357 217.526 54.8023 217.477 54.8514C217.428 54.9006 217.361 54.9281 217.292 54.9281Z" fill="white"/>
<path d="M220.408 112.119H53.1434C51.9601 112.118 50.8258 111.648 49.9891 110.812C49.1525 109.975 48.6819 108.842 48.6807 107.659V84.525C48.6819 83.3426 49.1525 82.2089 49.9891 81.3727C50.8258 80.5366 51.9602 80.0663 53.1434 80.0649H220.408C221.591 80.0662 222.725 80.5365 223.562 81.3726C224.399 82.2088 224.87 83.3425 224.871 84.525V107.659C224.87 108.842 224.399 109.975 223.562 110.812C222.725 111.648 221.591 112.118 220.408 112.119ZM53.1434 80.5888C52.0991 80.59 51.098 81.0051 50.3596 81.743C49.6213 82.4809 49.206 83.4815 49.2049 84.525V107.659C49.206 108.703 49.6213 109.703 50.3596 110.441C51.098 111.179 52.0991 111.594 53.1434 111.596H220.408C221.452 111.594 222.453 111.179 223.192 110.441C223.93 109.703 224.346 108.703 224.347 107.659V84.525C224.346 83.4814 223.93 82.4808 223.192 81.7429C222.453 81.005 221.452 80.5899 220.408 80.5888H53.1434Z" fill="#292A2E"/>
<path d="M220.408 152.725H53.1434C51.9602 152.724 50.8258 152.253 49.9892 151.417C49.1526 150.581 48.682 149.447 48.6807 148.265V125.131C48.6817 123.948 49.1522 122.814 49.9888 121.978C50.8255 121.141 51.96 120.671 53.1434 120.669H220.408C221.591 120.671 222.725 121.141 223.562 121.977C224.399 122.813 224.87 123.947 224.871 125.13V148.264C224.87 149.447 224.399 150.581 223.563 151.417C222.726 152.253 221.591 152.724 220.408 152.725ZM53.1434 121.193C52.0992 121.195 51.0981 121.61 50.3597 122.348C49.6214 123.085 49.206 124.086 49.2049 125.13V148.264C49.206 149.307 49.6214 150.308 50.3597 151.046C51.0981 151.784 52.0992 152.199 53.1434 152.2H220.408C221.452 152.199 222.453 151.784 223.192 151.046C223.93 150.308 224.345 149.308 224.347 148.264V125.131C224.346 124.087 223.93 123.086 223.192 122.348C222.454 121.61 221.452 121.194 220.408 121.193H53.1434Z" fill="#292A2E"/>
<path d="M233.323 23.1107V31.0177H40.7642V23.1107C40.7642 21.0267 41.5926 19.028 43.0672 17.5544C44.5417 16.0808 46.5417 15.2529 48.6271 15.2529H225.46C227.545 15.2529 229.545 16.0808 231.02 17.5544C232.494 19.028 233.323 21.0267 233.323 23.1107Z" fill="#292A2E"/>
<path d="M218.942 95.2717L216.659 91.621L212.967 93.8387L219.745 65.6172L225.72 67.0502L218.942 95.2717Z" fill="#367CFF"/>
<path d="M218.942 95.5338C218.897 95.5338 218.854 95.5225 218.815 95.501C218.776 95.4794 218.743 95.4484 218.72 95.4107L216.574 91.9795L213.102 94.0647C213.058 94.0913 213.007 94.1042 212.955 94.1019C212.904 94.0996 212.854 94.082 212.812 94.0515C212.771 94.021 212.739 93.9789 212.721 93.9304C212.703 93.882 212.7 93.8294 212.712 93.7792L219.491 65.5574C219.507 65.4902 219.549 65.4321 219.608 65.3958C219.667 65.3596 219.738 65.3481 219.805 65.3638L225.781 66.7971C225.814 66.8051 225.846 66.8197 225.874 66.8399C225.902 66.8601 225.925 66.8856 225.943 66.9149C225.961 66.9443 225.973 66.9769 225.979 67.0108C225.984 67.0448 225.983 67.0795 225.975 67.113L219.197 95.3332C219.185 95.3833 219.158 95.4288 219.12 95.4639C219.082 95.4989 219.035 95.5221 218.984 95.5304C218.97 95.5327 218.956 95.5338 218.942 95.5338ZM216.659 91.3592C216.703 91.3592 216.747 91.3705 216.786 91.392C216.825 91.4135 216.858 91.4446 216.881 91.4823L218.833 94.6034L225.403 67.2439L219.939 65.9343L213.368 93.2925L216.524 91.3967C216.565 91.3724 216.612 91.3598 216.659 91.36V91.3592Z" fill="#292A2E"/>
<path d="M226.957 95.2722L229.24 91.6215L232.932 93.8392L226.154 65.6177L220.179 67.0507L226.957 95.2722Z" fill="#367CFF"/>
<path d="M226.958 95.5339C226.943 95.534 226.929 95.5328 226.915 95.5305C226.864 95.5222 226.817 95.4991 226.779 95.464C226.741 95.4289 226.715 95.3834 226.703 95.3333L219.926 67.1118C219.918 67.0783 219.916 67.0436 219.922 67.0097C219.927 66.9757 219.939 66.9431 219.957 66.9138C219.975 66.8844 219.999 66.8589 220.026 66.8387C220.054 66.8185 220.086 66.8039 220.119 66.7959L226.095 65.3627C226.163 65.3465 226.234 65.3578 226.293 65.3941C226.352 65.4304 226.395 65.4887 226.411 65.5562L233.188 93.778C233.2 93.8282 233.197 93.8807 233.179 93.9291C233.161 93.9776 233.129 94.0196 233.088 94.0501C233.046 94.0806 232.997 94.0981 232.945 94.1005C232.893 94.1029 232.842 94.09 232.798 94.0635L229.327 91.9783L227.181 95.4095C227.157 95.4476 227.124 95.479 227.085 95.5008C227.046 95.5226 227.002 95.534 226.958 95.5339ZM220.495 67.2441L227.066 94.6036L229.018 91.4825C229.054 91.4242 229.112 91.3825 229.179 91.3665C229.246 91.3505 229.316 91.3614 229.375 91.3968L232.531 93.2926L225.96 65.9331L220.495 67.2441Z" fill="#292A2E"/>
<path d="M238.261 71.0377C238.261 72.5938 236.306 73.8225 235.849 75.2267C235.378 76.6822 236.219 78.8211 235.336 80.0325C234.445 81.256 232.144 81.1119 230.919 82.0022C229.707 82.8838 229.137 85.121 227.682 85.5935C226.276 86.0495 224.506 84.589 222.949 84.589C221.392 84.589 219.621 86.0495 218.216 85.5935C216.76 85.122 216.191 82.8838 214.979 82.0022C213.755 81.1117 211.453 81.2557 210.562 80.0323C209.679 78.8208 210.522 76.6819 210.049 75.2267C209.593 73.8225 207.638 72.5938 207.638 71.0377C207.638 69.4816 209.592 68.2529 210.049 66.8487C210.521 65.3932 209.679 63.2543 210.562 62.0429C211.453 60.8194 213.755 60.9635 214.979 60.0729C216.191 59.1913 216.761 56.9542 218.217 56.4817C219.622 56.0259 221.392 57.4864 222.949 57.4864C224.507 57.4864 226.276 56.0259 227.682 56.4817C229.138 56.9544 229.707 59.1916 230.92 60.0732C232.144 60.9638 234.446 60.8194 235.337 62.0429C236.219 63.2543 235.376 65.3932 235.849 66.8487C236.307 68.2529 238.261 69.4813 238.261 71.0377Z" fill="#0CBC8B"/>
<path d="M227.097 85.9436C226.405 85.9436 225.679 85.6623 224.971 85.3883C224.288 85.1243 223.581 84.8511 222.95 84.8511C222.318 84.8511 221.612 85.1243 220.929 85.3883C219.988 85.7521 219.015 86.1283 218.136 85.8428C217.215 85.5437 216.639 84.6458 216.083 83.7772C215.682 83.1528 215.304 82.5627 214.825 82.2143C214.337 81.8594 213.619 81.6708 212.927 81.4885C211.936 81.2266 210.912 80.9581 210.35 80.1867C209.795 79.4243 209.852 78.3729 209.909 77.3561C209.948 76.6361 209.989 75.8914 209.8 75.3078C209.621 74.7578 209.183 74.2248 208.718 73.6598C208.058 72.857 207.376 72.0267 207.376 71.0379C207.376 70.0491 208.057 69.2188 208.718 68.4158C209.183 67.8511 209.621 67.3175 209.8 66.768C209.99 66.1844 209.948 65.4395 209.909 64.7195C209.853 63.7027 209.795 62.6502 210.35 61.8891C210.912 61.1175 211.936 60.8479 212.927 60.5873C213.62 60.404 214.337 60.2164 214.825 59.8613C215.304 59.5129 215.682 58.9228 216.083 58.2983C216.64 57.4301 217.215 56.5319 218.137 56.2328C219.017 55.9478 219.989 56.3237 220.929 56.6872C221.612 56.9515 222.318 57.2247 222.95 57.2247C223.582 57.2247 224.287 56.9515 224.971 56.6872C225.911 56.3237 226.884 55.9476 227.763 56.2328C228.685 56.5322 229.261 57.4301 229.817 58.2986C230.217 58.923 230.595 59.5129 231.075 59.8615C231.563 60.2164 232.281 60.405 232.973 60.5873C233.964 60.8492 234.988 61.1177 235.55 61.8891C236.105 62.6516 236.048 63.7027 235.991 64.7195C235.952 65.4398 235.91 66.1844 236.1 66.768C236.279 67.318 236.717 67.8511 237.182 68.416C237.842 69.2188 238.524 70.0491 238.524 71.0379C238.524 72.0267 237.842 72.857 237.182 73.6598C236.717 74.2248 236.279 74.7583 236.1 75.3078C235.91 75.8914 235.952 76.6361 235.991 77.3564C236.047 78.3732 236.105 79.4243 235.55 80.1867C234.988 80.9581 233.964 81.2276 232.973 81.4885C232.28 81.6719 231.563 81.8594 231.075 82.2143C230.596 82.5629 230.218 83.1528 229.817 83.7772C229.261 84.6458 228.685 85.5439 227.763 85.8428C227.548 85.9113 227.323 85.9453 227.097 85.9436ZM222.95 84.3273C223.679 84.3273 224.432 84.6185 225.16 84.8998C226.054 85.2458 226.899 85.5727 227.601 85.3451C228.345 85.1039 228.845 84.3236 229.376 83.4951C229.784 82.8573 230.207 82.1978 230.765 81.7926C231.332 81.3796 232.097 81.1784 232.837 80.9838C233.781 80.7355 234.672 80.5008 235.124 79.8803C235.57 79.2687 235.519 78.3548 235.465 77.387C235.423 76.6188 235.379 75.8244 235.599 75.1478C235.808 74.504 236.299 73.9068 236.774 73.3292C237.375 72.5977 237.997 71.841 237.997 71.0397C237.997 70.2385 237.375 69.4818 236.774 68.7503C236.299 68.174 235.808 67.5753 235.599 66.9314C235.379 66.2551 235.423 65.4607 235.465 64.6925C235.518 63.7249 235.57 62.8108 235.124 62.1992C234.673 61.5787 233.781 61.344 232.838 61.0957C232.098 60.9011 231.333 60.6997 230.765 60.2869C230.206 59.8804 229.783 59.2208 229.376 58.5828C228.846 57.7556 228.345 56.9743 227.601 56.7331C226.899 56.5049 226.055 56.8318 225.16 57.1783C224.432 57.4597 223.679 57.7509 222.95 57.7509C222.221 57.7509 221.468 57.4597 220.74 57.1781C219.845 56.8321 219.001 56.5052 218.298 56.7328C217.555 56.974 217.054 57.7556 216.524 58.5828C216.116 59.2206 215.693 59.8801 215.135 60.2869C214.568 60.6997 213.802 60.9011 213.062 61.0957C212.119 61.344 211.228 61.5784 210.776 62.199C210.33 62.8105 210.381 63.7247 210.435 64.6922C210.477 65.4607 210.521 66.2549 210.301 66.9314C210.092 67.5753 209.601 68.1727 209.127 68.7503C208.524 69.4818 207.903 70.2383 207.903 71.0397C207.903 71.8412 208.525 72.5977 209.126 73.3292C209.601 73.9055 210.092 74.504 210.301 75.1478C210.521 75.8244 210.477 76.6188 210.435 77.3867C210.382 78.3546 210.33 79.2687 210.776 79.8803C211.228 80.5008 212.119 80.7352 213.062 80.9838C213.802 81.1784 214.567 81.3796 215.135 81.7926C215.694 82.1991 216.117 82.8587 216.524 83.4951C217.054 84.3226 217.555 85.1039 218.298 85.3451C219 85.5727 219.845 85.2464 220.74 84.8998C221.468 84.6185 222.22 84.3273 222.95 84.3273Z" fill="#292A2E"/>
<path d="M222.95 77.824C226.7 77.824 229.741 74.7857 229.741 71.0377C229.741 67.2898 226.7 64.2515 222.95 64.2515C219.199 64.2515 216.159 67.2898 216.159 71.0377C216.159 74.7857 219.199 77.824 222.95 77.824Z" fill="white"/>
<path d="M222.95 78.0861C221.555 78.0861 220.191 77.6727 219.031 76.8983C217.872 76.1238 216.968 75.023 216.434 73.7351C215.9 72.4473 215.76 71.0301 216.032 69.6629C216.305 68.2957 216.976 67.0398 217.963 66.0541C218.949 65.0684 220.206 64.3971 221.574 64.1252C222.942 63.8532 224.36 63.9928 225.649 64.5263C226.937 65.0597 228.039 65.9631 228.814 67.1222C229.589 68.2812 230.003 69.6439 230.003 71.0379C230 72.9066 229.257 74.6981 227.935 76.0194C226.612 77.3408 224.82 78.084 222.95 78.0861ZM222.95 64.5136C221.659 64.5136 220.396 64.8962 219.323 65.6131C218.249 66.3301 217.412 67.349 216.918 68.5412C216.424 69.7333 216.295 71.0452 216.547 72.3108C216.799 73.5764 217.42 74.7389 218.333 75.6513C219.246 76.5638 220.41 77.1851 221.676 77.4369C222.943 77.6886 224.255 77.5594 225.448 77.0656C226.641 76.5718 227.661 75.7356 228.378 74.6626C229.095 73.5897 229.478 72.3283 229.478 71.0379C229.477 69.308 228.788 67.6494 227.564 66.426C226.34 65.2026 224.681 64.5145 222.95 64.5126V64.5136Z" fill="#292A2E"/>
</g>
<defs>
<clipPath id="clip0_264_2088">
<rect width="273" height="182" fill="white"/>
</clipPath>
</defs>
</svg>
