<svg width="239" height="139" viewBox="0 0 239 139" fill="none" xmlns="http://www.w3.org/2000/svg">
<path d="M190.263 122.553H177.595V138.751H190.263V122.553Z" fill="#CBEDE1"/>
<path d="M164.891 109.217H152.223V138.751H164.891V109.217Z" fill="#CBEDE1"/>
<path d="M139.523 94.9653H126.852V138.75H139.523V94.9653Z" fill="#CBEDE1"/>
<path d="M114.151 81.2485H101.483V138.75H114.151V81.2485Z" fill="#CBEDE1"/>
<path d="M88.7832 66.6094H76.1118V138.75H88.7832V66.6094Z" fill="#CBEDE1"/>
<path d="M63.4113 52.9204H50.7432V138.75H63.4113V52.9204Z" fill="#CBEDE1"/>
<path d="M38.0401 38.8843H25.3716V138.75H38.0401V38.8843Z" fill="#CBEDE1"/>
<path d="M12.6714 25.7295H0V138.751H12.6714V25.7295Z" fill="#CBEDE1"/>
<path d="M222.484 122.339L214.728 130.674L205.414 125.55L0.000488281 12.597V0L212.943 117.091L222.484 122.339Z" fill="#4A52F7"/>
<path d="M224.341 104.28L239 138.818L193.664 138.751L224.341 104.28Z" fill="#4A52F7"/>
<path d="M172.749 57.5941C189.28 57.5941 202.68 47.2953 202.68 34.591C202.68 21.8867 189.28 11.5879 172.749 11.5879C156.219 11.5879 142.818 21.8867 142.818 34.591C142.818 47.2953 156.219 57.5941 172.749 57.5941Z" fill="#367CFF"/>
<g opacity="0.29">
<path d="M172.75 49.5032C183.466 49.5032 192.153 42.8268 192.153 34.5912C192.153 26.3555 183.466 19.6792 172.75 19.6792C162.034 19.6792 153.347 26.3555 153.347 34.5912C153.347 42.8268 162.034 49.5032 172.75 49.5032Z" fill="white"/>
</g>
<path d="M166.401 39.9171L168.21 37.7604C169.645 38.6051 170.9 39.036 172.234 39.036C173.834 39.036 174.538 38.5258 174.538 37.5386C174.538 35.3073 167.089 35.3474 167.089 31.4336C167.089 28.9174 169.356 27.3148 172.933 27.3148C173.949 27.3034 174.956 27.4621 175.883 27.7798C176.811 28.0975 177.638 28.5667 178.306 29.1547L176.23 30.9819C175.204 30.2663 174.334 29.8877 173.156 29.8877C171.798 29.8877 171.061 30.3086 171.061 31.2843C171.061 33.3529 178.51 33.1721 178.51 37.318C178.51 39.8069 176.364 41.6114 172.235 41.6114C170.096 41.5742 168.038 40.9764 166.401 39.9171ZM171.364 25.189H174.12V28.3125H171.364V25.189ZM171.364 40.3069H174.12V43.7344H171.364V40.3069Z" fill="white"/>
<path d="M128.661 125.725H96.5286C94.9873 125.725 93.7378 126.685 93.7378 127.87V130.126C93.7378 131.311 94.9873 132.271 96.5286 132.271H128.661C130.202 132.271 131.452 131.311 131.452 130.126V127.87C131.452 126.685 130.202 125.725 128.661 125.725Z" fill="#367CFF"/>
<path d="M123.659 119.179H91.5261C89.9848 119.179 88.7354 120.139 88.7354 121.324V123.58C88.7354 124.765 89.9848 125.725 91.5261 125.725H123.659C125.2 125.725 126.45 124.765 126.45 123.58V121.324C126.45 120.139 125.2 119.179 123.659 119.179Z" fill="#367CFF"/>
<path d="M128.661 112.632H96.5286C94.9873 112.632 93.7378 113.592 93.7378 114.777V117.033C93.7378 118.218 94.9873 119.178 96.5286 119.178H128.661C130.202 119.178 131.452 118.218 131.452 117.033V114.777C131.452 113.592 130.202 112.632 128.661 112.632Z" fill="#367CFF"/>
<path d="M126.16 106.205H94.0271C92.4858 106.205 91.2363 107.165 91.2363 108.349V110.606C91.2363 111.79 92.4858 112.751 94.0271 112.751H126.16C127.701 112.751 128.951 111.79 128.951 110.606V108.349C128.951 107.165 127.701 106.205 126.16 106.205Z" fill="#367CFF"/>
<path d="M121.157 99.6582H89.0247C87.4834 99.6582 86.2339 100.618 86.2339 101.803V104.06C86.2339 105.244 87.4834 106.204 89.0247 106.204H121.157C122.699 106.204 123.948 105.244 123.948 104.06V101.803C123.948 100.618 122.699 99.6582 121.157 99.6582Z" fill="#367CFF"/>
<path d="M125.65 132.271H93.5173C91.976 132.271 90.7266 133.231 90.7266 134.416V136.672C90.7266 137.857 91.976 138.817 93.5173 138.817H125.65C127.191 138.817 128.441 137.857 128.441 136.672V134.416C128.441 133.231 127.191 132.271 125.65 132.271Z" fill="#367CFF"/>
<path d="M175.874 132.272H143.741C142.2 132.272 140.951 133.233 140.951 134.417V136.674C140.951 137.858 142.2 138.819 143.741 138.819H175.874C177.415 138.819 178.665 137.858 178.665 136.674V134.417C178.665 133.233 177.415 132.272 175.874 132.272Z" fill="#4DA4FC"/>
<path d="M174.11 125.726H141.977C140.436 125.726 139.187 126.686 139.187 127.871V130.127C139.187 131.312 140.436 132.272 141.977 132.272H174.11C175.651 132.272 176.901 131.312 176.901 130.127V127.871C176.901 126.686 175.651 125.726 174.11 125.726Z" fill="#4DA4FC"/>
<path d="M175.874 119.18H143.741C142.2 119.18 140.951 120.14 140.951 121.325V123.581C140.951 124.766 142.2 125.726 143.741 125.726H175.874C177.415 125.726 178.665 124.766 178.665 123.581V121.325C178.665 120.14 177.415 119.18 175.874 119.18Z" fill="#4DA4FC"/>
</svg>
